<svg id="foreground" xmlns="http://www.w3.org/2000/svg" width="480" height="320" viewBox="0 0 480 320">
  <title>digid_instructie_idscan_tablet</title>
  <g opacity="0.3">
    <g>
      <rect x="241.62" y="41.98" width="188.82" height="231.31" fill="#fff"/>
      <path d="M242.41,43.44H429.5a.86.86,0,0,0,.85-.86V28.09a10.2,10.2,0,0,0-10.2-10.19H251.74a10.2,10.2,0,0,0-10.2,10.19V42.58A.86.86,0,0,0,242.41,43.44Z" fill="#e17000"/>
      <path d="M429.5,264.48H242.41a.85.85,0,0,0-.87.83v14.51a10.2,10.2,0,0,0,10.2,10.2H420.15a10.2,10.2,0,0,0,10.2-10.2h0V265.34a.84.84,0,0,0-.84-.86Z" fill="#e17000"/>
      <path d="M416.5,17.9a14,14,0,0,1,14,14.05v244.2a14,14,0,0,1-14,14H255.6a14,14,0,0,1-14.06-13.94V32a14,14,0,0,1,14-14h161m0-3.55H255.6A17.57,17.57,0,0,0,238,31.86V276.15a17.57,17.57,0,0,0,17.6,17.5H416.5A17.57,17.57,0,0,0,434,276.1V32A17.56,17.56,0,0,0,416.46,14.4Z"/>
      <path d="M416.5,21.44A10.48,10.48,0,0,1,426.91,32v244.2a10.46,10.46,0,0,1-10.45,10.45H255.6a10.45,10.45,0,0,1-10.45-10.45V32a10.47,10.47,0,0,1,10.43-10.51H416.5m0-3.54H255.6a14,14,0,0,0-14.06,13.94V276.15a14,14,0,0,0,14.05,14H416.5a14,14,0,0,0,14-14V32a14,14,0,0,0-14-14Z" fill="#fff"/>
      <g>
        <rect x="321.95" y="51.66" width="28.02" height="28.02" rx="3.85" ry="3.85"/>
        <g>
          <path d="M325.07,73.06V66.44H327c2.24,0,3.48,1.19,3.48,3.12a3.16,3.16,0,0,1-2.71,3.55,3.93,3.93,0,0,1-.84,0Zm1.18-1h.69c1.33,0,2.21-.72,2.21-2.45a2,2,0,0,0-1.88-2.19,1.86,1.86,0,0,0-.41,0h-.61Z" fill="#fff"/>
          <path d="M332.09,66a.65.65,0,0,1,0,1.3h0a.6.6,0,0,1-.67-.52.2.2,0,0,1,0-.11A.64.64,0,0,1,332,66Zm.57,7.09h-1.18v-5h1.18Z" fill="#fff"/>
          <path d="M335.43,72.11h1.18c1.08,0,1.53.43,1.53,1.19s-.78,1.72-2.6,1.72c-1.43,0-2.08-.51-2.08-1.29a1.17,1.17,0,0,1,.76-1.07h0a.72.72,0,0,1-.39-.66.79.79,0,0,1,.55-.75h0a1.39,1.39,0,0,1-.72-1.32,1.84,1.84,0,0,1,2.08-1.87,2.87,2.87,0,0,1,.77.11h1.62v.75h-.77a1.18,1.18,0,0,1,.39,1c0,1.1-.75,1.68-2.12,1.68a2.16,2.16,0,0,1-.62-.09.39.39,0,0,0-.22.31C334.76,72,335,72.11,335.43,72.11Zm.2,2.11c1.1,0,1.49-.27,1.49-.66s-.17-.46-.67-.48h-1.66a.57.57,0,0,0-.27.52c0,.33.35.59,1.11.59Zm1.06-4.44a.85.85,0,0,0-.76-.94.74.74,0,0,0-.21,0,.88.88,0,0,0-1,1,.83.83,0,0,0,.74.92.74.74,0,0,0,.21,0,.89.89,0,0,0,1-.75,1.22,1.22,0,0,0,0-.27Z" fill="#fff"/>
          <path d="M339.49,66a.65.65,0,1,1,0,1.3h0a.58.58,0,0,1-.66-.51.49.49,0,0,1,0-.12.64.64,0,0,1,.59-.67Zm.57,7.09h-1.18v-5h1.18Z" fill="#f98a3c"/>
          <path d="M341.48,73.06V66.44h1.9c2.24,0,3.48,1.19,3.48,3.12a3.16,3.16,0,0,1-2.71,3.55,3.93,3.93,0,0,1-.84,0Zm1.18-1h.7c1.32,0,2.2-.72,2.2-2.45a2,2,0,0,0-1.88-2.19,1.86,1.86,0,0,0-.41,0h-.61Z" fill="#f98a3c"/>
        </g>
      </g>
    </g>
    <circle cx="336.02" cy="30.73" r="1.77"/>
  </g>
  <g>
    <path d="M94.5,324.5l14.23-18.22a21.74,21.74,0,0,1,9.8-7.06c23.24-8.52,50-32.2,50-60.1l-12.59,16.72H107.34c5.13-80.66-25.07-65.4-25.07-65.4h0a2.38,2.38,0,0,1-3.47-2.75c3.48-11.47,4.45-20.43,5.22-23.48L60.32,144.51c.08,2.86-.6,4.37-1.72,7-3.45,8.05-10.89,26.57-20.45,47.71-4.65,10.28,1,27.9,3.42,47.55a36.26,36.26,0,0,1-6.9,26.16L-3.5,324.5" fill="#fed6c3"/>
    <path d="M155.16,254.34H108.93c2.09-35.4-2.36-57-13.22-64.14a14.68,14.68,0,0,0-14.12-1.1l-.09.05a.83.83,0,0,1-1-.06.86.86,0,0,1-.3-1,158,158,0,0,0,4.49-19.63c.3-1.73.53-3.09.74-3.91l.23-.91-27-22.45.1,3.33c.07,2.45-.46,3.69-1.52,6.16l-.08.2c-.89,2.09-2,4.87-3.45,8.22-3.94,9.48-9.9,23.8-17,39.46-3.53,7.82-1.53,19.25.79,32.48.9,5.11,1.83,10.4,2.51,15.87A34.6,34.6,0,0,1,33.46,272L-4.71,323.61a1.5,1.5,0,0,0,.32,2.1,1.55,1.55,0,0,0,.89.29,1.51,1.51,0,0,0,1.21-.61l38.16-51.56a37.57,37.57,0,0,0,7.19-27.25c-.7-5.55-1.63-10.87-2.53-16-2.24-12.75-4.17-23.76-1-30.73,7.1-15.7,13.07-30.05,17-39.55,1.39-3.34,2.55-6.11,3.44-8.19l.08-.2a21.26,21.26,0,0,0,1.53-4.38l20.74,17.27c-.17.85-.36,1.93-.58,3.19a155.15,155.15,0,0,1-4.4,19.28A3.88,3.88,0,0,0,83,191.77a11.61,11.61,0,0,1,11.13,1c6.89,4.59,14.53,19.24,11.74,63l-.1,1.6h50.91L166.72,244c-2.83,24.45-26.42,45.67-48.71,53.83a23.28,23.28,0,0,0-10.46,7.54L93.32,323.58a1.5,1.5,0,0,0,2.36,1.84l14.24-18.23a20.28,20.28,0,0,1,9.12-6.56c24.71-9.05,51-33.69,51-61.51v-4.49Z"/>
  </g>
  <rect x="71.65" y="153.25" width="87.54" height="104.3" fill="#fed6c3"/>
  <g>
    <g>
      <path d="M193.41,116.88l-5.62.71c-7.45.94-12.79,7.41-11.87,14.39s7.77,11.91,15.22,11l5.62-.71c7.45-.94,12.78-7.41,11.86-14.39S200.86,115.94,193.41,116.88Z" fill="#fed6c3" stroke="#000" stroke-miterlimit="10" stroke-width="3"/>
      <path d="M194.9,91.21l-6.74.89c-6.52.86-11.14,7.27-10.26,14.25h0c.88,7,6.94,12,13.46,11.12l6.74-.89c6.52-.86,11.14-7.28,10.26-14.25S201.42,90.34,194.9,91.21Z" fill="#fed6c3" stroke="#000" stroke-miterlimit="10" stroke-width="3"/>
    </g>
    <g>
      <path d="M193.79,167.88l-5.63.71c-7.44.94-12.78,7.41-11.86,14.39s7.77,11.91,15.21,11l5.63-.71c7.44-.94,12.78-7.42,11.86-14.39S201.23,166.94,193.79,167.88Z" fill="#fed6c3" stroke="#000" stroke-miterlimit="10" stroke-width="3"/>
      <path d="M195.27,142.21l-6.73.89c-6.53.86-11.15,7.27-10.27,14.25h0c.88,7,6.94,12,13.47,11.12l6.73-.89c6.53-.86,11.14-7.28,10.26-14.25S201.8,141.34,195.27,142.21Z" fill="#fed6c3" stroke="#000" stroke-miterlimit="10" stroke-width="3"/>
    </g>
  </g>
  <g>
    <g>
      <rect x="195.94" y="299.8" width="16.93" height="35.63" rx="7.98" ry="7.98" transform="translate(131.7 -53.03) rotate(21.67)" fill="#fed6c3" stroke="#000" stroke-miterlimit="10" stroke-width="3"/>
      <rect x="188.45" y="290.67" width="16.93" height="35.63" rx="7.98" ry="7.98" transform="translate(127.8 -50.91) rotate(21.67)" fill="#fed6c3" stroke="#000" stroke-miterlimit="10" stroke-width="3"/>
      <rect x="183.46" y="277" width="16.93" height="35.63" rx="7.98" ry="7.98" transform="translate(122.4 -50.03) rotate(21.67)" fill="#fed6c3" stroke="#000" stroke-miterlimit="10" stroke-width="3"/>
    </g>
    <path d="M206,230.5l9.54.15s27,19.11,36.94,23.65c10.24,4.66,14.76,13.77,22.58,49.69,9.62,44.2-1.3,26.21,12.14,70.48l-50.27,23.74s-16.06-35.8-21.55-44.56c0,0-20.67-48.09-8.25-70.36" fill="#fed6c3" stroke="#000" stroke-miterlimit="10" stroke-width="3"/>
    <g>
      <path d="M215.49,134.79a4.34,4.34,0,0,1,4.27,3.6l22.8,131.53a4.34,4.34,0,0,1-3.53,5L149.2,290.51a4.74,4.74,0,0,1-.75.06,4.35,4.35,0,0,1-4.27-3.6l-22.8-131.53a4.35,4.35,0,0,1,3.54-5l89.83-15.57a4.71,4.71,0,0,1,.74-.06m0-6a10.57,10.57,0,0,0-1.77.15l-89.83,15.57a10.35,10.35,0,0,0-8.42,12L138.27,288a10.31,10.31,0,0,0,10.18,8.57,10.6,10.6,0,0,0,1.78-.15l89.82-15.57a10.33,10.33,0,0,0,8.42-12L225.68,137.36a10.33,10.33,0,0,0-10.19-8.57Z" fill="#999"/>
      <rect x="132.05" y="141.59" width="99.85" height="142.17" rx="4.34" ry="4.34" transform="translate(-33.65 34.2) rotate(-9.83)" fill="#f7f7f7"/>
      <g>
        <rect x="151.72" y="201.07" width="8.19" height="87.64" transform="translate(-39.53 30.21) rotate(-9.83)" fill="#eaeaea"/>
        <rect x="167.13" y="198.4" width="8.19" height="87.64" transform="translate(-38.85 32.8) rotate(-9.83)" fill="#eaeaea"/>
        <rect x="182.53" y="195.73" width="8.19" height="87.64" transform="translate(-38.17 35.39) rotate(-9.83)" fill="#eaeaea"/>
        <rect x="197.94" y="193.06" width="8.19" height="87.64" transform="matrix(0.99, -0.17, 0.17, 0.99, -37.49, 37.99)" fill="#eaeaea"/>
        <rect x="213.35" y="190.39" width="8.19" height="87.64" transform="translate(-36.8 40.58) rotate(-9.83)" fill="#eaeaea"/>
        <path d="M148.41,290.64l3.52-.6-15-86.35-8.07,1.4L143.09,287A4.55,4.55,0,0,0,148.41,290.64Z" fill="#eaeaea"/>
        <path d="M243.66,269.88l-14.25-82.22-8.07,1.4,15,86.35,3.81-.66A4.27,4.27,0,0,0,243.66,269.88Z" fill="#eaeaea"/>
      </g>
      <g>
        <rect x="212.73" y="266.91" width="6.49" height="1.29" transform="translate(-42.52 40.82) rotate(-9.83)" fill="#999"/>
        <path d="M213.47,262.79a3.12,3.12,0,0,0,.05.67,2.84,2.84,0,0,0,.35,1,2.54,2.54,0,0,0,.66.72,2.33,2.33,0,0,0,.91.39,2.71,2.71,0,0,0,1.1,0,2.64,2.64,0,0,0,1.69-.85,2,2,0,0,0,.34-1.57,2.33,2.33,0,0,0-.22-.66A2.28,2.28,0,0,0,218,262l.33-.06-.2-1.17-6.82,1.18.27,1.2Zm3.66-.65a2.77,2.77,0,0,1,.22.39,2,2,0,0,1,.12.43,1.13,1.13,0,0,1-.18.89,1.44,1.44,0,0,1-1,.51,1.55,1.55,0,0,1-1.17-.18,1.28,1.28,0,0,1-.57-.91c0-.12,0-.24-.05-.34s0-.21,0-.32Z" fill="#999"/>
        <path d="M212.6,258.34a2.37,2.37,0,0,0,.31.83,1.9,1.9,0,0,0,.6.63,2.22,2.22,0,0,0,.87.33,3.25,3.25,0,0,0,1.12,0,3.63,3.63,0,0,0,1.07-.36,2.07,2.07,0,0,0,.68-.63,2.22,2.22,0,0,0,.32-.86,3.75,3.75,0,0,0,0-1c0-.16-.06-.31-.09-.44a3.22,3.22,0,0,0-.12-.37,3.45,3.45,0,0,0-.14-.34l-.16-.35-1,.17a5,5,0,0,1,.28.64,4.87,4.87,0,0,1,.18.71,1.71,1.71,0,0,1-.1,1.06,1.33,1.33,0,0,1-.77.61l-.51-3-.41,0-.48.07a2,2,0,0,0-1.37.78A2,2,0,0,0,212.6,258.34Zm2.18.72a1.48,1.48,0,0,1-.86-.2.87.87,0,0,1-.39-.59.79.79,0,0,1,.19-.7,1.3,1.3,0,0,1,.74-.37Z" fill="#999"/>
        <path d="M211.69,252.92a2.16,2.16,0,0,0,.62,1.21l-.36.06.25,1.15,4.81-.83-.21-1.2-3.64.63a2.86,2.86,0,0,1-.19-.41,2.32,2.32,0,0,1-.12-.44.93.93,0,0,1,.1-.66.86.86,0,0,1,.64-.33l2.91-.51-.2-1.2-3.17.55a1.79,1.79,0,0,0-1.22.67A1.71,1.71,0,0,0,211.69,252.92Z" fill="#999"/>
        <path d="M214.74,247.22a.73.73,0,0,1-.09.55.75.75,0,0,1-.56.3l-2.18.38-.21-1.22-.91.16.21,1.22-1,.17.3,1.18.89-.15.1.58.91-.15-.1-.59,2.35-.41a1.46,1.46,0,0,0,1.37-1.84,3.69,3.69,0,0,0-.12-.5,4.51,4.51,0,0,0-.17-.46l-1,.18.12.31A1.77,1.77,0,0,1,214.74,247.22Z" fill="#999"/>
        <polygon points="215.47 245.63 215.26 244.43 210.41 245.28 210.66 246.47 215.47 245.63" fill="#999"/>
        <path d="M208.53,246.22a.7.7,0,0,0,.29.49.76.76,0,0,0,.51.09.69.69,0,0,0,.45-.26.7.7,0,0,0,.1-.55.66.66,0,0,0-.29-.48.68.68,0,0,0-.5-.1.79.79,0,0,0-.46.26A.71.71,0,0,0,208.53,246.22Z" fill="#999"/>
        <path d="M213.69,241.18a.73.73,0,0,1-.09.55.79.79,0,0,1-.56.31l-2.18.37-.21-1.22-.91.16.22,1.22-1,.17.31,1.18.88-.15.11.59.9-.16-.1-.59,2.35-.4a1.67,1.67,0,0,0,1.16-.64,1.62,1.62,0,0,0,.21-1.21,4.24,4.24,0,0,0-.11-.5,2.63,2.63,0,0,0-.18-.45l-1,.17c.05.13.1.23.12.31A1.77,1.77,0,0,1,213.69,241.18Z" fill="#999"/>
        <path d="M209.16,238.51a2.3,2.3,0,0,0,.31.83,2.12,2.12,0,0,0,.6.63,2.4,2.4,0,0,0,.87.34,3.54,3.54,0,0,0,1.12,0,3.63,3.63,0,0,0,1.07-.36,2,2,0,0,0,.68-.63,2.17,2.17,0,0,0,.32-.86,3.13,3.13,0,0,0,0-1.05c0-.16-.06-.31-.09-.44s-.07-.25-.11-.37-.09-.23-.14-.34l-.17-.35-1,.17a5.53,5.53,0,0,1,.27.64,4.87,4.87,0,0,1,.18.71,1.71,1.71,0,0,1-.09,1.06,1.38,1.38,0,0,1-.78.61l-.51-3-.41,0-.47.08a1.83,1.83,0,0,0-1.65,2.28Zm2.19.72a1.44,1.44,0,0,1-.87-.2.92.92,0,0,1-.39-.59.83.83,0,0,1,.19-.7,1.34,1.34,0,0,1,.74-.37Z" fill="#999"/>
        <polygon points="213.57 234.68 213.36 233.48 208.51 234.32 208.76 235.51 213.57 234.68" fill="#999"/>
        <path d="M206.63,235.27a.64.64,0,0,0,.3.48.67.67,0,0,0,.5.1.73.73,0,0,0,.45-.26.7.7,0,0,0,.1-.55.66.66,0,0,0-.29-.48.73.73,0,0,0-.95.16A.66.66,0,0,0,206.63,235.27Z" fill="#999"/>
        <path d="M211.79,230.23a.73.73,0,0,1-.09.55.75.75,0,0,1-.56.3l-2.18.38-.21-1.22-.9.16.21,1.22-1,.17.31,1.18.89-.15.1.58.9-.15-.1-.59,2.35-.41a1.61,1.61,0,0,0,1.16-.63,1.58,1.58,0,0,0,.21-1.21,3.83,3.83,0,0,0-.11-.5,2.71,2.71,0,0,0-.18-.46l-1,.18a1.59,1.59,0,0,1,.12.31A1.12,1.12,0,0,1,211.79,230.23Z" fill="#999"/>
        <path d="M209.3,227.12l-.06.6a.93.93,0,0,1-.12.47.35.35,0,0,1-.25.14.33.33,0,0,1-.31-.14,1.36,1.36,0,0,1-.23-.62c0-.21-.06-.4-.08-.59s0-.38,0-.6l-1,.1a3.58,3.58,0,0,0,0,.56c0,.21.05.42.09.65a2.42,2.42,0,0,0,.7,1.46,1.35,1.35,0,0,0,1.2.36,1.24,1.24,0,0,0,.79-.42,1.56,1.56,0,0,0,.33-.85l.07-.65a1.39,1.39,0,0,1,.14-.53.37.37,0,0,1,.25-.17.38.38,0,0,1,.35.13,1.35,1.35,0,0,1,.25.68c0,.22.06.44.08.68a6,6,0,0,1,0,.73l1-.18a3.69,3.69,0,0,0,0-.66c0-.24-.06-.5-.1-.77a2.45,2.45,0,0,0-.69-1.44,1.5,1.5,0,0,0-1.29-.34,1.28,1.28,0,0,0-.77.41A1.68,1.68,0,0,0,209.3,227.12Z" fill="#999"/>
        <path d="M206.48,222.89a1.76,1.76,0,0,0,.22.62,2.44,2.44,0,0,0,.37.52l-2.3.39.27,1.2,6.71-1.16c0-.33,0-.62-.07-.89s-.07-.53-.11-.79a3.59,3.59,0,0,0-.37-1.09,2.53,2.53,0,0,0-.66-.78,2.3,2.3,0,0,0-.93-.41,3.22,3.22,0,0,0-1.16,0,2.52,2.52,0,0,0-1.64.83A2,2,0,0,0,206.48,222.89Zm3-1.21a1.26,1.26,0,0,1,.53.21,1.18,1.18,0,0,1,.35.41,2.32,2.32,0,0,1,.18.58c0,.1,0,.19,0,.27s0,.17,0,.27l-2.64.46a2.86,2.86,0,0,1-.19-.41,1.86,1.86,0,0,1-.11-.41,1.13,1.13,0,0,1,.17-.88,1.38,1.38,0,0,1,.93-.48A2.28,2.28,0,0,1,209.48,221.68Z" fill="#999"/>
        <path d="M205.59,217.91a2.43,2.43,0,0,0,.31.84,2.21,2.21,0,0,0,.6.62,2.4,2.4,0,0,0,.87.34,3.54,3.54,0,0,0,1.12,0,3.63,3.63,0,0,0,1.07-.36,2,2,0,0,0,.68-.63,2.17,2.17,0,0,0,.32-.86,3.13,3.13,0,0,0,0-1.05c0-.16-.06-.31-.09-.44s-.07-.25-.11-.37-.09-.23-.14-.34l-.17-.35-1,.17a5.53,5.53,0,0,1,.27.64,4.87,4.87,0,0,1,.18.71,1.71,1.71,0,0,1-.09,1.06,1.38,1.38,0,0,1-.78.61l-.51-3-.41,0-.48.08a1.83,1.83,0,0,0-1.64,2.28Zm2.18.72a1.43,1.43,0,0,1-.86-.2.92.92,0,0,1-.39-.59.83.83,0,0,1,.19-.7,1.34,1.34,0,0,1,.74-.37Z" fill="#999"/>
        <polygon points="208.28 209.69 208.28 209.74 204.57 211.48 204.77 212.67 205.63 212.27 208.8 212.72 208.81 212.77 205.03 214.18 205.27 215.55 209.9 213.49 209.63 211.94 206.84 211.57 206.84 211.54 209.36 210.38 209.08 208.76 204.03 208.35 204.24 209.6 208.28 209.69" fill="#999"/>
        <path d="M201.8,207.4a.68.68,0,0,0,.3.49.72.72,0,0,0,.5.09.69.69,0,0,0,.45-.26.7.7,0,0,0,.1-.55.66.66,0,0,0-.29-.48.73.73,0,0,0-1,.16A.67.67,0,0,0,201.8,207.4Z" fill="#999"/>
        <polygon points="208.74 206.81 208.53 205.62 203.68 206.46 203.93 207.65 208.74 206.81" fill="#999"/>
        <path d="M201.36,204.88a.64.64,0,0,0,.3.48.74.74,0,0,0,.51.09.73.73,0,0,0,.44-.25.67.67,0,0,0,.1-.55.64.64,0,0,0-.78-.58.69.69,0,0,0-.46.26A.66.66,0,0,0,201.36,204.88Z" fill="#999"/>
        <path d="M208.26,204.3a1.12,1.12,0,0,1,.7.06,1,1,0,0,1,.44.49l.92-.26a3,3,0,0,0-.31-.68,1.94,1.94,0,0,0-.48-.51,1.84,1.84,0,0,0-.65-.3,2.42,2.42,0,0,0-.85,0l-4.79.83.26,1.19Z" fill="#999"/>
        <path d="M205,199.25a1.68,1.68,0,0,0-.34,1l-.06.6a.93.93,0,0,1-.12.47.34.34,0,0,1-.56,0,1.27,1.27,0,0,1-.23-.61c0-.21-.06-.4-.08-.59s0-.39,0-.61l-1,.11a3.62,3.62,0,0,0,0,.56c0,.2.05.42.09.65a2.42,2.42,0,0,0,.7,1.46,1.38,1.38,0,0,0,1.2.36,1.24,1.24,0,0,0,.79-.42,1.56,1.56,0,0,0,.33-.85l.07-.65a1.39,1.39,0,0,1,.14-.53.37.37,0,0,1,.26-.17.36.36,0,0,1,.34.13,1.35,1.35,0,0,1,.25.68c0,.22.06.44.08.68a6,6,0,0,1,0,.73l1-.18a3.69,3.69,0,0,0,0-.66,7.76,7.76,0,0,0-.1-.77,2.45,2.45,0,0,0-.69-1.44,1.5,1.5,0,0,0-1.29-.34A1.28,1.28,0,0,0,205,199.25Z" fill="#999"/>
        <path d="M160.27,228Q156,234.7,158,245.79l2.14,12.39,42.55-7.38-2.08-12a32.66,32.66,0,0,0-3-9.36,18.74,18.74,0,0,0-5.38-6.55,18.37,18.37,0,0,0-7.83-3.36,29.17,29.17,0,0,0-10.3.15Q164.5,221.34,160.27,228Zm22.88.24a12.62,12.62,0,0,1,5.22,1.94,10.68,10.68,0,0,1,3.44,3.88,18.26,18.26,0,0,1,1.83,5.53l.68,3.95-28.79,5-.6-3.43q-1.16-6.69,1.62-11.07T176,228.5A22.51,22.51,0,0,1,183.15,228.26Z" fill="#999"/>
        <rect x="162.38" y="265.13" width="43.18" height="8.56" transform="translate(-43.31 35.38) rotate(-9.83)" fill="#999"/>
      </g>
      <path d="M215.49,134.79a4.34,4.34,0,0,1,4.27,3.6l22.8,131.53a4.34,4.34,0,0,1-3.53,5L149.2,290.51a4.74,4.74,0,0,1-.75.06,4.35,4.35,0,0,1-4.27-3.6l-22.8-131.53a4.35,4.35,0,0,1,3.54-5l89.83-15.57a4.71,4.71,0,0,1,.74-.06m0-3a7.66,7.66,0,0,0-1.26.11l-89.82,15.57a7.33,7.33,0,0,0-6,8.48l22.8,131.54a7.32,7.32,0,0,0,7.22,6.08,6.63,6.63,0,0,0,1.26-.11l89.83-15.57a7.34,7.34,0,0,0,6-8.48l-22.8-131.53a7.32,7.32,0,0,0-7.23-6.09Z" fill="#fff"/>
      <g>
        <g>
          <path d="M145.89,167c-1.1.85-1.06,1.07-1,1.3a3.74,3.74,0,0,0,.62,1.26l.32.47.1.14-.08.15-.42.74c-.56,1-.73,1.35-.63,1.94a13.72,13.72,0,0,0,2.67,4.69,12.37,12.37,0,0,0,3.38.63,9.7,9.7,0,0,0,2.95-1.14l.57-.27c.49-.23,1.16-.53,1.93-1l-4.4.77-.26,0-.05-.27c-.11-.61-.83-3.85-4.34-7.58l-.11-.13.06-.16a.36.36,0,0,1,.19-.21.41.41,0,0,1,.34,0,7.25,7.25,0,0,1,1.66,1l.88-2.57.05-.15.16,0,4.08-.71c-.62-.1-1.81-.18-3.71-.28l-1.73-.11c-1.24-.08-1.92.45-3,1.34Z" fill="#999"/>
          <path d="M140,173.65a14.15,14.15,0,1,0,11.53-16.36A14.14,14.14,0,0,0,140,173.65Zm9.3-9.48c.81.05,1.48.09,2.06.11l1,.05c.21-.33.69-.54,1.51-.69s2.3-.26,3,.86c3-.21,4.64.93,6.44,2.44a4.26,4.26,0,0,1,1.19,2.47,4.2,4.2,0,0,1-.29,2.72c-1.19,2-2.33,3.64-5.24,4.46-.3,1.29-1.87,1.7-2.55,1.82a2.21,2.21,0,0,1-1.62-.12l-.35.17a10.34,10.34,0,0,1-3.42,1.28,12.23,12.23,0,0,1-4.18-.78c-.8-.42-2.17-2.69-2.85-4.09a6.34,6.34,0,0,1-.55-1.6,4,4,0,0,1,.78-2.88l0-.1a4.69,4.69,0,0,1-.75-1.68c-.21-1.2.58-1.93,1.55-2.69C146.32,164.91,147.43,164,149.26,164.17Z" fill="#999"/>
        </g>
        <g>
          <path d="M174.23,154Z" fill="#999"/>
          <path d="M171.74,154.58h-.09s-.08,0-.12,0a.65.65,0,0,1-.13,0,.48.48,0,0,0-.3.11,1.34,1.34,0,0,1-.06.12.15.15,0,0,0,0,.29l.09.06a.36.36,0,0,0,.36.08s.09,0,.14,0c.25,0,0,.12.25,0A.32.32,0,0,0,171.74,154.58Z" fill="#999"/>
          <path d="M171.21,147.25a1.86,1.86,0,0,0-.05.34,1.16,1.16,0,0,0,.16.65l0,0a1.63,1.63,0,0,1-.53.26l-.19.08-.15,0a.31.31,0,0,0,.11.6l.66-.24a1.08,1.08,0,0,0,.32-.09.36.36,0,0,0,.11-.1c.14.23.23.48.35.72a7,7,0,0,1,.52,1.23,1.68,1.68,0,0,1,.21.37,3.53,3.53,0,0,1,0,.46c0,.14,0,.28.07.41.15.74,0,0,.22.73,0,.11.05.23.08.35.18.6,0,.06.27.57.19.33.23.72.41,1a.33.33,0,0,1,.06.1,2.35,2.35,0,0,1,0,.27l.06.43a1.93,1.93,0,0,0,.18.56,5.12,5.12,0,0,0,.18.94c0,.1.09.19.12.29a5.83,5.83,0,0,0,.21.92c0,.16,0,.32.05.48s.06.2.08.3,0,.19,0,.28a1.22,1.22,0,0,0,0,.27,1,1,0,0,0,.11.24c0,.45,0,0,0,.42a2.58,2.58,0,0,0,0,.39,2.09,2.09,0,0,1,.08.23,2.33,2.33,0,0,1,0,.37,2.14,2.14,0,0,0,.06.27c0,.1.06.19.08.29a3.11,3.11,0,0,1,0,.32l.06.32a2.86,2.86,0,0,0,.07.28c0,.05.08.07.11.12a1.25,1.25,0,0,0,0,.19.74.74,0,0,0,0,.14c0,.18-.08.2-.23.22l-.14,0s-.13,0-.15,0c-.07.21-.2.58,0,.65a.38.38,0,0,0,.15,0l.21.08c.51.08,0,0,.53.21a3,3,0,0,0,.4.17l.12.08c.07.05.17.05.22.11a1,1,0,0,1,.15.33s-.09,0-.14.07a.8.8,0,0,1-.42.12l-.27,0h-.28a1.55,1.55,0,0,1-.54-.1c0-.16,0-.14-.18-.19s-.52-.1-.56.17.11.26.16.38l0,0a.24.24,0,0,0,.14.12l-.05,0s-.08,0-.12,0-.1.15-.28.19a1.1,1.1,0,0,1-.18,0c-.37,0,0,.08-.35,0a.79.79,0,0,1-.29.08s-.11,0-.16,0c-.22.09-.4.41-.22.62a2.3,2.3,0,0,1,.15.32.7.7,0,0,1,.08.1l0,.06s0,.06,0,.07h0a.3.3,0,0,0,.1.14h0c.28.46,1,1.59,1.91,3,.23.36.43.73.65,1.1s.46.8.7,1.2a29.28,29.28,0,0,1,1.44,2.59c-.31,0-.62,0-.93.05s-.61.09-.92.13l-.89.1-.8.17c-.87.16-.55.06-1.38.25a11.27,11.27,0,0,0-1.36.43,1.25,1.25,0,0,0-.24.16.55.55,0,0,0-.17.43.81.81,0,0,0,.13.29c.09.1.26.08.39.1a1.54,1.54,0,0,0,1-.06,6.27,6.27,0,0,0,1.38.06l.73,0c.24,0,.48-.05.72-.06a7.26,7.26,0,0,1,1.15,0,5.53,5.53,0,0,1,.26,1.49c0,.16,0,.32,0,.47s0,.3.05.44a3.54,3.54,0,0,1,0,.46c0,.06-.24.65-.24.65.22.2.47.35.62,0a.8.8,0,0,0,0-.27,4,4,0,0,0,.1-.41.53.53,0,0,1,.08-.15,1,1,0,0,1,.19-.16l.19-.23a.36.36,0,0,1,0,.09c.09.3.09.62.16.93s.19.63.25.95.07.63.12,1,.09.71.13,1.06c.1,1.34.28,2.67.32,4a5.14,5.14,0,0,0,.1,1.5,2.74,2.74,0,0,0,.17,1.06c0,.09,0,.21.12.25.53.26.76-.45.92-.77A13,13,0,0,0,181,188a7.94,7.94,0,0,0,.18-1c0-.38,0-.76,0-1.13a12,12,0,0,0,0-2.53,14.13,14.13,0,0,0-.43-2.89c-.11-.48-.26-.94-.38-1.41s-.23-1-.4-1.48-.6-1.34-1-2.08l.21,0c.59-.06,1.18,0,1.77-.09l.77,0a4.62,4.62,0,0,1,.65-.08c.17,0,.35.06.53.07a2.88,2.88,0,0,1,.83.05.26.26,0,0,0,.07-.51h-.19c-.38-.05-.47-.18-.7-.13a3,3,0,0,1-1.21,0l-.78-.1a8.52,8.52,0,0,1-1.78.19l-.42,0-.11-.21c-.7-1.32-1.37-2.65-2.15-3.92-.22-.36-1.27-2.13-1.15-1.95l-1.3-2.07c.06-.07,0-.09-.09-.21l-.06-.08,0,0,0-.07v0c.06,0,.1-.07.16-.07a3.25,3.25,0,0,0,1-.23.78.78,0,0,0,.15-.1,1.84,1.84,0,0,0,.21-.29,1.19,1.19,0,0,0,.29.05,5.34,5.34,0,0,0,.69-.05,1,1,0,0,0,.8-.34.7.7,0,0,0,.18-.21c.1-.25,0-.47-.1-.7-.24-.39-.07-.2-.46-.45a2.64,2.64,0,0,0-.29-.21c-.11,0-.24,0-.35-.07l-.3-.14s.11,0,.14-.09a1.14,1.14,0,0,0,.1-.77c0-.15,0-.28-.07-.42a1.54,1.54,0,0,0-.11-.3c0-.1-.05-.2-.07-.3-.13-.58,0-.05-.08-.61a2,2,0,0,0-.06-.26,5.43,5.43,0,0,1-.09-.69l-.09-.42c0-.27-.07-.54-.1-.8,0-.1,0-.2,0-.3-.09-.38-.1-.39-.1-.33s0,.14-.06-.45a6.85,6.85,0,0,1-.32-1.28c0-.13-.15-.45-.19-.58a3.88,3.88,0,0,1-.09-.58c0-.09,0-.18-.07-.27a.57.57,0,0,0,0-.13,3.26,3.26,0,0,0-.15-.7,3.17,3.17,0,0,1-.06-.34s0,.23-.16-.22a1.83,1.83,0,0,1-.07-.32c-.05-.14-.19-.43-.25-.57l-.09-.29a2,2,0,0,1-.21-.63c0-.12-.08-.22-.1-.34a3.1,3.1,0,0,0,0-.43,1.88,1.88,0,0,0-.18-.38c0-.15-.06-.3-.1-.45a2.57,2.57,0,0,0-.11-.48c-.07-.15-.21-.25-.28-.4a3.47,3.47,0,0,1-.13-.46c0-.06-.3-.7-.35-.78h0a2.56,2.56,0,0,0,.38-.54c.12-.13-.09-.32-.21-.19a3.9,3.9,0,0,1-.46.41c-.09-.13-.12-.31-.22-.44a1,1,0,0,0-.44-.24Zm6.57,31.93c0-.16,0-.33,0-.49-.09-.8-.13-.69-.13-.84,0,.11-.06-.14.09.24.07.23.13.47.21.69a2,2,0,0,0,.13.25l-.29.26S177.78,179.22,177.78,179.18Zm2.12.12a33.78,33.78,0,0,1,.75,4c0,.43.07.86.07,1.29s0,.79-.05,1.18,0,.73,0,1.09-.12.62-.18.93a5.69,5.69,0,0,1-.31,1.4l-.12.43s0,.09-.05.13,0-.13-.05-.19a2.38,2.38,0,0,1,0-.57c-.22-1.84-.34-3.68-.53-5.53,0-.36-.06-.72-.13-1.08s-.16-.74-.25-1.12-.15-.65-.22-1-.16-.75-.24-1.13c.05,0,.08-.09.13-.13a3.22,3.22,0,0,0,.48-.43c0-.08.08-.19.13-.28a2.24,2.24,0,0,0,.12-.27C179.57,178.45,179.77,178.86,179.9,179.3Zm-.89-1.44c-.13.12-.11.31-.2.46s-.12.13-.18.2l-.19.21c0-.07,0-.14-.06-.22s-.16-.45-.24-.68c-.27-.69-.25-.62-.22-.55s0,0,0-.06h0l.22.08a2.49,2.49,0,0,1,.65.22A1.33,1.33,0,0,1,179,177.86Zm-1.72-2.18c.32,0,.63,0,1,0a.86.86,0,0,1,.17,0c.26.57.49,1.14.65,1.54l-.09-.05a1.78,1.78,0,0,0-.33-.23,2.58,2.58,0,0,0-1-.27l-.08-.18a2.29,2.29,0,0,0-.28-.43,1.36,1.36,0,0,0-.48.12l0,.24c0,.05,0,.12,0,.17a1.86,1.86,0,0,0-.33,0c-.28,0-1.15,0-1.42,0s-.5,0-.74,0a5.2,5.2,0,0,1-1.36,0,2.16,2.16,0,0,1,.39-.22c.2-.06.42,0,.63-.08s.47-.13.71-.19l.8-.14A13.13,13.13,0,0,1,177.29,175.68Z" fill="#999"/>
        </g>
      </g>
      <g>
        <g>
          <path d="M206.4,158.48l1.45,8.41a.16.16,0,0,1-.13-.09,45.19,45.19,0,0,1-2-7.92l-.56.09a.45.45,0,0,0-.33.56s1.52,8.77,3.23,8.48c12.15-2.11,9.22-1.62,11.2-2a.74.74,0,0,0,.61-.85c-.33-1.89-1.2-6.89-1.52-8.78a.73.73,0,0,0-.86-.58L207,157.65A.72.72,0,0,0,206.4,158.48Zm10.29,2.76a3.74,3.74,0,1,1-4.32-3A3.74,3.74,0,0,1,216.69,161.24Z" fill="#999"/>
          <g>
            <path d="M210.53,163.61a3,3,0,0,0,2.75,1.28l-.18-1A4.87,4.87,0,0,1,210.53,163.61Z" fill="#999"/>
            <path d="M210,162.09v.06l2.73-.47-.21-1.22C211.19,160.75,210.17,161.42,210,162.09Z" fill="#999"/>
            <path d="M210.09,161.08a5,5,0,0,1,2.34-1.1l-.18-1A3,3,0,0,0,210.09,161.08Z" fill="#999"/>
            <path d="M213,163.38l-.21-1.22-2.73.48s0,0,0,.06C210.48,163.26,211.68,163.55,213,163.38Z" fill="#999"/>
            <path d="M213.77,164.81a3,3,0,0,0,2.16-2.13,5,5,0,0,1-2.34,1.1Z" fill="#999"/>
            <path d="M213.21,161.59l2.73-.47s0,0,0-.06c-.39-.57-1.58-.86-2.92-.68Z" fill="#999"/>
            <path d="M215.49,160.14a3,3,0,0,0-2.75-1.28l.18,1A5.09,5.09,0,0,1,215.49,160.14Z" fill="#999"/>
            <path d="M216,161.67s0,0,0-.06l-2.73.47.21,1.21C214.82,163,215.85,162.33,216,161.67Z" fill="#999"/>
          </g>
        </g>
        <g>
          <path d="M211.47,171.54l1.94,11.22a.88.88,0,0,0,1,.72l7.48-1.3a.88.88,0,0,0,.72-1l-1.95-11.23a.88.88,0,0,0-1-.72l-7.49,1.3A.87.87,0,0,0,211.47,171.54Zm6.44,1,.46,2.65-1.15.2-.46-2.65Zm-2.36-1.41.77,4.42-1.16.2-.76-4.42Z" fill="#999"/>
          <path d="M216.49,176.77a.23.23,0,0,0-.29.22,1,1,0,0,0,.07.34,5.15,5.15,0,0,0-1,.56c-.12.16-.11.65.07,1.7s.34,1.5.5,1.62a5.18,5.18,0,0,0,1.12.19,1.12,1.12,0,0,0,0,.35.24.24,0,0,0,.35.11.78.78,0,0,0,.19-.26,1.4,1.4,0,0,0,1,.09l1.18-.2a3.4,3.4,0,0,0,.57-.15.19.19,0,0,0,.11-.21l-.11-.67a.19.19,0,0,0-.18-.16,3.68,3.68,0,0,0-.58,0l-.26-1.44-.25-1.45c.12,0,.45-.1.57-.15a.19.19,0,0,0,.12-.21l-.12-.67a.19.19,0,0,0-.18-.16,4.16,4.16,0,0,0-.58.06l-1.19.2a1.44,1.44,0,0,0-.89.42A.67.67,0,0,0,216.49,176.77Zm-.36,4a7.12,7.12,0,0,1-.3-1.3,9.36,9.36,0,0,1-.16-1.32c.12-.08.62-.32.89-.44a8.51,8.51,0,0,1,.4,1.57,8.42,8.42,0,0,1,.15,1.61A8.16,8.16,0,0,1,216.13,180.8Zm2.61-.58.06.62a.36.36,0,0,1-.24.35l-.17.05a.15.15,0,0,1-.2-.17l.05-.52a.36.36,0,0,1,.19-.26l.24-.11A0,0,0,0,1,218.74,180.22Zm.13-1.88.21,1.24-.31,0-.21-1.24Zm-1-1.34a.35.35,0,0,1,.34.25l.16.6a.06.06,0,0,1-.06.07l-.26,0a.36.36,0,0,1-.27-.18l-.22-.47a.16.16,0,0,1,.14-.23Z" fill="#fff"/>
        </g>
        <g>
          <path d="M206.35,142.05l2,11.23a.87.87,0,0,0,1,.71l7.49-1.29a.89.89,0,0,0,.72-1l-2-11.23a.88.88,0,0,0-1-.71l-7.49,1.3A.87.87,0,0,0,206.35,142.05Zm6.45,1,.46,2.65-1.15.19-.46-2.64Zm-2.36-1.41.77,4.41-1.16.2-.76-4.41Z" fill="#999"/>
          <path d="M210.07,149.5a1,1,0,0,0-.09,1.21,3.37,3.37,0,0,0,.73,1.06,2,2,0,0,0,2.11-.2c.06.07.19.08.41.05s.6-.17.64-.48a2.12,2.12,0,0,0,1.41-1.18,1.29,1.29,0,0,0-.23-1.3,2.12,2.12,0,0,0-1.72-.63c-.14-.28-.53-.28-.76-.24s-.34.11-.37.19l-.87,0a1.45,1.45,0,0,0-1.08.45C209.86,148.7,209.67,148.92,210.07,149.5Zm1.27-1.07.4,0,.87.07a.12.12,0,0,1,.1.1l-1.05.18-.2.6a1.12,1.12,0,0,0-.46-.19s0,0,0,0a3.79,3.79,0,0,1,1,1.77l1.11-.2a.11.11,0,0,1-.06.13l-.58.29a2.34,2.34,0,0,1-.7.27,2.85,2.85,0,0,1-.81-.15,3.09,3.09,0,0,1-.64-1.12c0-.16,0-.25.15-.49l.1-.17-.08-.11a.72.72,0,0,1-.15-.31c0-.1,0-.17.26-.36A1,1,0,0,1,211.34,148.43Z" fill="#fff"/>
          <path d="M210.31,149.13a.72.72,0,0,0,.15.31l.08.11-.1.17c-.13.24-.18.33-.15.49a3.09,3.09,0,0,0,.64,1.12,2.85,2.85,0,0,0,.81.15,2.34,2.34,0,0,0,.7-.27l.58-.29a.11.11,0,0,0,.06-.13L212,151a3.79,3.79,0,0,0-1-1.77s0,0,0,0a1.12,1.12,0,0,1,.46.19l.2-.6,1.05-.18a.12.12,0,0,0-.1-.1l-.87-.07-.4,0a1,1,0,0,0-.77.34C210.32,149,210.29,149,210.31,149.13Z" fill="#999"/>
        </g>
      </g>
    </g>
    <path d="M247.54,283.68A27.47,27.47,0,0,1,232.83,267L218.52,223.9A11.76,11.76,0,0,0,204,215.64c-6.48,1.72-9.28,8.82-7.64,15.33,0,0,9.12,35,7.8,61.27" fill="#fed6c3" stroke="#000" stroke-linecap="round" stroke-miterlimit="10" stroke-width="3"/>
  </g>
  <g>
    <rect x="77.62" y="92.62" width="110.22" height="165.33" fill="#fff"/>
    <path d="M180.76,69h-96a7.08,7.08,0,0,0-7.09,7.09v18.1H187.84V76.09A7.08,7.08,0,0,0,180.76,69Z" fill="#e17000"/>
    <path d="M140.5,81.67H125a1.5,1.5,0,0,0,0,3H140.5a1.5,1.5,0,0,0,0-3Z"/>
    <circle cx="118.94" cy="83.17" r="1.55"/>
    <g>
      <rect x="118.91" y="102.62" width="27.64" height="27.64" rx="3.8" ry="3.8"/>
      <g>
        <path d="M122,123.73V117.2h1.88c2.21,0,3.43,1.1,3.43,3.07a3.11,3.11,0,0,1-3.47,3.46Zm1.2-1h.69c1.31,0,2.17-.7,2.17-2.41a2,2,0,0,0-2.26-2.15h-.6Z" fill="#fff"/>
        <path d="M128.9,116.76a.64.64,0,1,1,0,1.28.59.59,0,0,1-.65-.63A.62.62,0,0,1,128.9,116.76Zm.57,7h-1.12v-4.9l1.12,0Z" fill="#fff"/>
        <path d="M132.2,122.77h1.17c1.06,0,1.51.42,1.51,1.22s-.78,1.69-2.57,1.69c-1.41,0-2.05-.5-2.05-1.26a1.14,1.14,0,0,1,.74-1.07v0a.73.73,0,0,1-.38-.66.77.77,0,0,1,.54-.73v0a1.39,1.39,0,0,1-.7-1.31c0-1.19.8-1.84,2-1.84a2.66,2.66,0,0,1,.75.1h1.6v.75h-.76v0a1.15,1.15,0,0,1,.39.92c0,1.09-.74,1.66-2.09,1.66a2.45,2.45,0,0,1-.62-.08.35.35,0,0,0-.21.3C131.57,122.65,131.74,122.77,132.2,122.77Zm.21,2.07c1.07,0,1.46-.27,1.46-.65s-.18-.45-.67-.46l-1.63,0a.57.57,0,0,0-.27.52C131.3,124.58,131.64,124.84,132.41,124.84Zm1-4.38a.83.83,0,0,0-.95-.91.89.89,0,0,0-1,1,.82.82,0,0,0,.94.91A.86.86,0,0,0,133.44,120.46Z" fill="#fff"/>
        <path d="M136.18,116.76a.64.64,0,1,1,0,1.28.6.6,0,0,1-.66-.63A.62.62,0,0,1,136.18,116.76Zm.57,7h-1.13v-4.9l1.13,0Z" fill="#f98a3c"/>
        <path d="M138.17,123.73V117.2H140c2.21,0,3.44,1.1,3.44,3.07,0,2.36-1.34,3.46-3.48,3.46Zm1.2-1h.68c1.32,0,2.17-.7,2.17-2.41a2,2,0,0,0-2.26-2.15h-.59Z" fill="#f98a3c"/>
      </g>
    </g>
    <path d="M180.76,281.57h-96a7.08,7.08,0,0,1-7.09-7.08V256.38H187.84v18.11A7.08,7.08,0,0,1,180.76,281.57Z" fill="#e17000"/>
    <path d="M178.39,66H87.07A12.46,12.46,0,0,0,74.62,78.45V272.12a12.46,12.46,0,0,0,12.45,12.45h91.32a12.46,12.46,0,0,0,12.45-12.45V78.45A12.46,12.46,0,0,0,178.39,66Zm9.45,206.12a9.45,9.45,0,0,1-9.45,9.45H87.07a9.45,9.45,0,0,1-9.45-9.45V78.45A9.45,9.45,0,0,1,87.07,69h91.32a9.45,9.45,0,0,1,9.45,9.45Z"/>
    <g>
      <polygon points="163.38 92.1 168.44 92.1 176.89 74.1 171.82 74.1 163.38 92.1" fill="#fff" opacity="0.2"/>
      <polygon points="160 92.1 165.07 92.1 173.51 74.1 168.44 74.1 160 92.1" fill="#fff" opacity="0.2"/>
    </g>
    <g>
      <polygon points="91.93 276.4 97 276.4 105.44 258.4 100.38 258.4 91.93 276.4" fill="#fff" opacity="0.2"/>
      <polygon points="88.56 276.4 93.62 276.4 102.07 258.4 97 258.4 88.56 276.4" fill="#fff" opacity="0.2"/>
    </g>
    <g>
      <circle cx="132.73" cy="183.29" r="4.09" fill="#e17000"/>
      <g>
        <path d="M101,167.24a2.47,2.47,0,0,0,3.36-.9,32.72,32.72,0,0,1,56.75,0,2.45,2.45,0,1,0,4.25-2.45,37.63,37.63,0,0,0-65.26,0A2.45,2.45,0,0,0,101,167.24Z" fill="#e17000"/>
        <path d="M155.44,169.61a26.19,26.19,0,0,0-45.42,0,2.46,2.46,0,1,0,4.26,2.45,21.28,21.28,0,0,1,36.91,0,2.45,2.45,0,0,0,2.13,1.23,2.44,2.44,0,0,0,2.12-3.68Z" fill="#e17000"/>
        <path d="M120.86,178.7a2.46,2.46,0,0,0,3.35-.91,9.8,9.8,0,0,1,17,0,2.45,2.45,0,0,0,2.13,1.23,2.45,2.45,0,0,0,2.13-3.67,14.71,14.71,0,0,0-25.58,0A2.46,2.46,0,0,0,120.86,178.7Z" fill="#e17000"/>
        <path d="M164.46,199.34a2.44,2.44,0,0,0-3.35.9,32.73,32.73,0,0,1-56.75,0,2.46,2.46,0,0,0-4.26,2.45,37.64,37.64,0,0,0,65.26,0A2.45,2.45,0,0,0,164.46,199.34Z" fill="#e17000"/>
        <path d="M114.28,194.51A2.46,2.46,0,0,0,110,197a26.18,26.18,0,0,0,45.42,0,2.45,2.45,0,1,0-4.25-2.45,21.27,21.27,0,0,1-36.91,0Z" fill="#e17000"/>
        <path d="M119.94,191.22a14.71,14.71,0,0,0,25.58,0,2.45,2.45,0,1,0-4.26-2.43,9.81,9.81,0,0,1-17,0,2.46,2.46,0,0,0-4.27,2.43Z" fill="#e17000"/>
      </g>
    </g>
    <g>
      <rect x="80" y="244" width="106" height="4" fill="#fed6c3"/>
      <rect x="80" y="244" width="66.89" height="4" fill="#e17000"/>
    </g>
    <path d="M178.39,69H87.07a9.45,9.45,0,0,0-9.45,9.45V272.12a9.45,9.45,0,0,0,9.45,9.45h91.32a9.45,9.45,0,0,0,9.45-9.45V78.45A9.45,9.45,0,0,0,178.39,69Zm6.45,203.12a6.45,6.45,0,0,1-6.45,6.45H87.07a6.45,6.45,0,0,1-6.45-6.45V78.45A6.45,6.45,0,0,1,87.07,72h91.32a6.45,6.45,0,0,1,6.45,6.45Z" fill="#fff"/>
  </g>
  <path d="M69.08,197.46A307,307,0,0,0,83,163.34c1.13-3.44,7.45-25.08-3.58-37-10.87-11.8-20.5-.88-20.5-.88l1.45,19.09" fill="#fed6c3"/>
  <g>
    <path d="M60.32,144.51c.08,2.86-.6,4.37-1.72,7" fill="#fed6c3"/>
    <path d="M80.48,125.28c-3.69-4-7.67-6.06-11.87-6-6.35.07-10.68,4.9-10.86,5.11l-.42.47,1.49,19.67c.07,2.45-.46,3.69-1.52,6.15l-.08.2a1.5,1.5,0,0,0,.79,2,1.5,1.5,0,0,0,2-.79l.08-.2c1.11-2.6,1.85-4.31,1.76-7.43,0,0,0,0,0,0v0L60.42,126c1.1-1,4.23-3.64,8.25-3.67,3.29,0,6.52,1.65,9.6,5,10.69,11.59,4,33.14,3.26,35.56A306.38,306.38,0,0,1,67.74,196.8a1.5,1.5,0,0,0,.68,2,1.55,1.55,0,0,0,.66.15,1.49,1.49,0,0,0,1.35-.83,309.53,309.53,0,0,0,13.95-34.32C85.23,161.22,92.33,138.14,80.48,125.28Z"/>
  </g>
</svg>
