<svg id="foreground" xmlns="http://www.w3.org/2000/svg" width="480" height="320" viewBox="0 0 480 320">
  <title>digid_instructie_pincode_tablet</title>
  <g opacity="0.3">
    <g>
      <rect x="241.62" y="41.98" width="188.82" height="231.31" fill="#fff"/>
      <path d="M242.41,43.44H429.5a.86.86,0,0,0,.85-.86V28.09a10.2,10.2,0,0,0-10.2-10.19H251.74a10.2,10.2,0,0,0-10.2,10.19V42.58A.86.86,0,0,0,242.41,43.44Z" fill="#e17000"/>
      <path d="M429.5,264.48H242.41a.85.85,0,0,0-.87.83v14.51a10.2,10.2,0,0,0,10.2,10.2H420.15a10.2,10.2,0,0,0,10.2-10.2h0V265.34a.84.84,0,0,0-.84-.86Z" fill="#e17000"/>
      <path d="M416.5,17.9a14,14,0,0,1,14,14.05v244.2a14,14,0,0,1-14,14H255.6a14,14,0,0,1-14.06-13.94V32a14,14,0,0,1,14-14h161m0-3.55H255.6A17.57,17.57,0,0,0,238,31.86V276.15a17.57,17.57,0,0,0,17.6,17.5H416.5A17.57,17.57,0,0,0,434,276.1V32A17.56,17.56,0,0,0,416.46,14.4Z"/>
      <path d="M416.5,21.44A10.48,10.48,0,0,1,426.91,32v244.2a10.46,10.46,0,0,1-10.45,10.45H255.6a10.45,10.45,0,0,1-10.45-10.45V32a10.47,10.47,0,0,1,10.43-10.51H416.5m0-3.54H255.6a14,14,0,0,0-14.06,13.94V276.15a14,14,0,0,0,14.05,14H416.5a14,14,0,0,0,14-14V32a14,14,0,0,0-14-14Z" fill="#fff"/>
      <g>
        <rect x="321.95" y="51.66" width="28.02" height="28.02" rx="3.85" ry="3.85"/>
        <g>
          <path d="M325.07,73.06V66.44H327c2.24,0,3.48,1.19,3.48,3.12a3.16,3.16,0,0,1-2.71,3.55,3.93,3.93,0,0,1-.84,0Zm1.18-1h.69c1.33,0,2.21-.72,2.21-2.45a2,2,0,0,0-1.88-2.19,1.86,1.86,0,0,0-.41,0h-.61Z" fill="#fff"/>
          <path d="M332.09,66a.65.65,0,0,1,0,1.3h0a.6.6,0,0,1-.67-.52.2.2,0,0,1,0-.11A.64.64,0,0,1,332,66Zm.57,7.09h-1.18v-5h1.18Z" fill="#fff"/>
          <path d="M335.43,72.11h1.18c1.08,0,1.53.43,1.53,1.19s-.78,1.72-2.6,1.72c-1.43,0-2.08-.51-2.08-1.29a1.17,1.17,0,0,1,.76-1.07h0a.72.72,0,0,1-.39-.66.79.79,0,0,1,.55-.75h0a1.39,1.39,0,0,1-.72-1.32,1.84,1.84,0,0,1,2.08-1.87,2.87,2.87,0,0,1,.77.11h1.62v.75h-.77a1.18,1.18,0,0,1,.39,1c0,1.1-.75,1.68-2.12,1.68a2.16,2.16,0,0,1-.62-.09.39.39,0,0,0-.22.31C334.76,72,335,72.11,335.43,72.11Zm.2,2.11c1.1,0,1.49-.27,1.49-.66s-.17-.46-.67-.48h-1.66a.57.57,0,0,0-.27.52c0,.33.35.59,1.11.59Zm1.06-4.44a.85.85,0,0,0-.76-.94.74.74,0,0,0-.21,0,.88.88,0,0,0-1,1,.83.83,0,0,0,.74.92.74.74,0,0,0,.21,0,.89.89,0,0,0,1-.75,1.22,1.22,0,0,0,0-.27Z" fill="#fff"/>
          <path d="M339.49,66a.65.65,0,1,1,0,1.3h0a.58.58,0,0,1-.66-.51.49.49,0,0,1,0-.12.64.64,0,0,1,.59-.67Zm.57,7.09h-1.18v-5h1.18Z" fill="#f98a3c"/>
          <path d="M341.48,73.06V66.44h1.9c2.24,0,3.48,1.19,3.48,3.12a3.16,3.16,0,0,1-2.71,3.55,3.93,3.93,0,0,1-.84,0Zm1.18-1h.7c1.32,0,2.2-.72,2.2-2.45a2,2,0,0,0-1.88-2.19,1.86,1.86,0,0,0-.41,0h-.61Z" fill="#f98a3c"/>
        </g>
      </g>
    </g>
    <circle cx="336.02" cy="30.73" r="1.77"/>
  </g>
  <g>
    <path d="M94.5,324.5l14.23-18.22a21.74,21.74,0,0,1,9.8-7.06c23.24-8.52,50-32.2,50-60.1l-12.59,16.72H107.34c5.13-80.66-25.07-65.4-25.07-65.4h0a2.38,2.38,0,0,1-3.47-2.75c3.48-11.47,4.45-20.43,5.22-23.48L60.32,144.51c.08,2.86-.6,4.37-1.72,7-3.45,8.05-10.89,26.57-20.45,47.71-4.65,10.28,1,27.9,3.42,47.55a36.26,36.26,0,0,1-6.9,26.16L-3.5,324.5" fill="#fed6c3"/>
    <path d="M155.16,254.34H108.93c2.09-35.4-2.36-57-13.22-64.14a14.68,14.68,0,0,0-14.12-1.1l-.09.05a.83.83,0,0,1-1-.06.86.86,0,0,1-.3-1,158,158,0,0,0,4.49-19.63c.3-1.73.53-3.09.74-3.91l.23-.91-27-22.45.1,3.33c.07,2.45-.46,3.69-1.52,6.16l-.08.2c-.89,2.09-2,4.87-3.45,8.22-3.94,9.48-9.9,23.8-17,39.46-3.53,7.82-1.53,19.25.79,32.48.9,5.11,1.83,10.4,2.51,15.87A34.6,34.6,0,0,1,33.46,272L-4.71,323.61a1.5,1.5,0,0,0,.32,2.1,1.55,1.55,0,0,0,.89.29,1.51,1.51,0,0,0,1.21-.61l38.16-51.56a37.57,37.57,0,0,0,7.19-27.25c-.7-5.55-1.63-10.87-2.53-16-2.24-12.75-4.17-23.76-1-30.73,7.1-15.7,13.07-30.05,17-39.55,1.39-3.34,2.55-6.11,3.44-8.19l.08-.2a21.26,21.26,0,0,0,1.53-4.38l20.74,17.27c-.17.85-.36,1.93-.58,3.19a155.15,155.15,0,0,1-4.4,19.28A3.88,3.88,0,0,0,83,191.77a11.61,11.61,0,0,1,11.13,1c6.89,4.59,14.53,19.24,11.74,63l-.1,1.6h50.91L166.72,244c-2.83,24.45-26.42,45.67-48.71,53.83a23.28,23.28,0,0,0-10.46,7.54L93.32,323.58a1.5,1.5,0,0,0,2.36,1.84l14.24-18.23a20.28,20.28,0,0,1,9.12-6.56c24.71-9.05,51-33.69,51-61.51v-4.49Z"/>
  </g>
  <g>
    <rect x="180.45" y="116.81" width="26.85" height="59.42" rx="13.42" ry="13.42" transform="translate(217.83 -95.3) rotate(58.58)" fill="#fed6c3"/>
    <path d="M220.5,130.25a14.94,14.94,0,0,0-20.51-5l-27.8,17a14.91,14.91,0,0,0,4.28,27.23,15.37,15.37,0,0,0,3.55.42,14.8,14.8,0,0,0,7.73-2.18l27.8-17A15,15,0,0,0,220.5,130.25Zm-6.52,18-27.79,17a11.93,11.93,0,0,1-12.44-20.35l27.8-17A11.92,11.92,0,0,1,214,148.21Z"/>
  </g>
  <rect x="71.65" y="153.25" width="87.54" height="104.3" fill="#fed6c3"/>
  <rect x="77.62" y="92.62" width="110.22" height="165.33" fill="#fff"/>
  <path d="M94.55,193.88V192.6c.43-.11.88-.21,1.37-.29a7.93,7.93,0,0,1,1.29-.12h1v8.71H96.43v-7.21c-.27,0-.57,0-.91.05A9,9,0,0,0,94.55,193.88Z"/>
  <path d="M130.55,193.84v-1.45a10.28,10.28,0,0,1,1.08-.21,7.82,7.82,0,0,1,1.07-.08,3.12,3.12,0,0,1,2.14.67,2.31,2.31,0,0,1,.76,1.82,2.74,2.74,0,0,1-.39,1.47,5,5,0,0,1-1.37,1.31l-.72.5a4,4,0,0,0-.89.79,2.2,2.2,0,0,0-.4.81h3.93v1.43h-5.36l-.19-1.22a3.79,3.79,0,0,1,.56-1.43,5.21,5.21,0,0,1,1.18-1.23l.88-.66a3.3,3.3,0,0,0,.75-.76,1.41,1.41,0,0,0,.23-.79,1.13,1.13,0,0,0-.36-.9,1.52,1.52,0,0,0-1-.31,8.65,8.65,0,0,0-.92.05A7.33,7.33,0,0,0,130.55,193.84Z"/>
  <path d="M166.59,193.63v-1.44h4.85l.22,1.38a6.44,6.44,0,0,1-.72,1.23,4.1,4.1,0,0,1-1,.92v0a2.51,2.51,0,0,1,1.42.83,2.19,2.19,0,0,1,.51,1.47,2.54,2.54,0,0,1-1.16,2.14,5.13,5.13,0,0,1-3.06.84h-1.13v-1.33h1.11a3.37,3.37,0,0,0,1.81-.4,1.3,1.3,0,0,0,.63-1.16,1.18,1.18,0,0,0-.34-.86,2.3,2.3,0,0,0-.94-.56,7.4,7.4,0,0,1-.76.32,5.12,5.12,0,0,1-.8.22L166.9,196a6.19,6.19,0,0,0,1.9-.9,4.37,4.37,0,0,0,1.29-1.45Z"/>
  <path d="M99.16,215.54v5.72h.89v1.32h-.89v1.7H97.43v-1.7H94l-.32-1.07a8.21,8.21,0,0,1,1.2-3.58,7.69,7.69,0,0,1,2.46-2.39Zm-4,5.72h2.31v-4.17h0a5.91,5.91,0,0,0-1.51,1.82A7.16,7.16,0,0,0,95.12,221.26Z"/>
  <path d="M135.26,215.58V217H131.9v1.7l.43,0,.4,0a3.12,3.12,0,0,1,2.23.73,2.41,2.41,0,0,1,.76,1.85,2.74,2.74,0,0,1-1.17,2.31,5,5,0,0,1-3.06.87h-1.1v-1.32h1.16a3,3,0,0,0,1.7-.44,1.35,1.35,0,0,0,.67-1.2,1.2,1.2,0,0,0-.45-1,2.34,2.34,0,0,0-1.45-.36l-.74,0c-.27,0-.53,0-.77.06v-4.6Z"/>
  <path d="M171.1,215.58h.73v1.27h-.75a3.49,3.49,0,0,0-1.91.48,2.84,2.84,0,0,0-1.15,1.5l0,0a2.57,2.57,0,0,1,.68-.26,4,4,0,0,1,.82-.08,2.6,2.6,0,0,1,1.9.71,2.65,2.65,0,0,1,.73,2,3,3,0,0,1-.91,2.29,3,3,0,0,1-2.18.88,2.88,2.88,0,0,1-2.16-.89,3.93,3.93,0,0,1-.84-2.76,5,5,0,0,1,1.39-4A5.33,5.33,0,0,1,171.1,215.58ZM167.94,220c0,.14,0,.29,0,.45s0,.33,0,.49a2.7,2.7,0,0,0,.4,1.73,1.22,1.22,0,0,0,.94.47,1,1,0,0,0,.83-.39,2.07,2.07,0,0,0,.31-1.29,1.8,1.8,0,0,0-.36-1.24,1.21,1.21,0,0,0-.93-.39,4,4,0,0,0-1.14.17Z"/>
  <path d="M94,239h5.45l.24,1.35A10.53,10.53,0,0,0,97.49,244a11.44,11.44,0,0,0-.63,3.65H95.19a12,12,0,0,1,.57-3.67,10.16,10.16,0,0,1,2.13-3.55v-.06H94Z"/>
  <path d="M133,238.84a3.06,3.06,0,0,1,2,.6,1.85,1.85,0,0,1,.72,1.5,2.12,2.12,0,0,1-.34,1.22,3.48,3.48,0,0,1-1.17,1l.5.28a3.11,3.11,0,0,1,1.06.92,2.06,2.06,0,0,1,.29,1.14,2,2,0,0,1-.93,1.67,3.84,3.84,0,0,1-2.3.66,3.49,3.49,0,0,1-2.14-.59,1.88,1.88,0,0,1-.78-1.56,2.16,2.16,0,0,1,.36-1.2,3.85,3.85,0,0,1,1.31-1.08l-.4-.3a2.86,2.86,0,0,1-.75-.79,2.22,2.22,0,0,1,.61-2.7A2.89,2.89,0,0,1,133,238.84Zm.41,5.59-.88-.56a2.86,2.86,0,0,0-.72.74,1.49,1.49,0,0,0-.21.82,1,1,0,0,0,.38.78,1.54,1.54,0,0,0,1,.3,1.57,1.57,0,0,0,.93-.26.83.83,0,0,0,.35-.68A1,1,0,0,0,134,245,2.21,2.21,0,0,0,133.4,244.43Zm-.42-4.36a1.06,1.06,0,0,0-.77.3.93.93,0,0,0-.31.73,1,1,0,0,0,.13.53,1.46,1.46,0,0,0,.43.43l.79.56a2.28,2.28,0,0,0,.68-.73,1.68,1.68,0,0,0,.2-.78.94.94,0,0,0-.31-.76A1.2,1.2,0,0,0,133,240.07Z"/>
  <path d="M167.11,247.67h-.73v-1.28h.75a3.59,3.59,0,0,0,1.92-.47,3,3,0,0,0,1.14-1.51l0,0a2.57,2.57,0,0,1-.68.26,3.27,3.27,0,0,1-.81.08,2.58,2.58,0,0,1-1.91-.71,2.65,2.65,0,0,1-.73-2,3.08,3.08,0,0,1,3.11-3.17,2.86,2.86,0,0,1,2.15.89,3.93,3.93,0,0,1,.85,2.76c0,1.92-.48,3.26-1.44,4A5.62,5.62,0,0,1,167.11,247.67Zm3.17-4.45c0-.14,0-.29,0-.45s0-.33,0-.49a2.72,2.72,0,0,0-.4-1.73,1.19,1.19,0,0,0-.94-.46,1,1,0,0,0-.84.38,2.07,2.07,0,0,0-.31,1.29,1.78,1.78,0,0,0,.36,1.24,1.21,1.21,0,0,0,.93.39,3.05,3.05,0,0,0,.62,0A4.54,4.54,0,0,0,170.28,243.22Z"/>
  <path d="M78.17,184.66v1h36V208H78v1h36.17v22.38H78v1h36.17v24.83h1V232.42h35.49v25.19h1V232.42h36.17v-1H151.65V209h36.17v-1H151.65V185.66H188v-1ZM150.65,209v22.38H115.16V209Zm-35.49-1V185.66h35.49V208Z" fill="#ccc"/>
  <g>
    <path d="M177.47,164.61H165a2.3,2.3,0,0,1-2.31-2.31V149.81a2.31,2.31,0,0,1,2.31-2.32h12.49a2.32,2.32,0,0,1,2.32,2.32V162.3A2.31,2.31,0,0,1,177.47,164.61ZM165,149.49a.31.31,0,0,0-.31.32V162.3a.31.31,0,0,0,.31.31h12.49a.31.31,0,0,0,.32-.31V149.81a.32.32,0,0,0-.32-.32Z" fill="#ccc" stroke="#fff" stroke-miterlimit="10" stroke-width="0.25"/>
    <path d="M158.23,164.61h-12.5a2.31,2.31,0,0,1-2.31-2.31V149.81a2.32,2.32,0,0,1,2.31-2.32h12.5a2.32,2.32,0,0,1,2.31,2.32V162.3A2.31,2.31,0,0,1,158.23,164.61Zm-12.5-15.12a.31.31,0,0,0-.31.32V162.3a.31.31,0,0,0,.31.31h12.5a.31.31,0,0,0,.31-.31V149.81a.31.31,0,0,0-.31-.32Z" fill="#ccc" stroke="#fff" stroke-miterlimit="10" stroke-width="0.25"/>
    <path d="M139,161.86h-12.5a2.31,2.31,0,0,1-2.31-2.31V147.06a2.32,2.32,0,0,1,2.31-2.32H139a2.32,2.32,0,0,1,2.31,2.32v12.49A2.31,2.31,0,0,1,139,161.86Zm-12.5-15.12a.31.31,0,0,0-.31.32v12.49a.31.31,0,0,0,.31.31H139a.31.31,0,0,0,.31-.31V147.06a.31.31,0,0,0-.31-.32Z" stroke="#fff" stroke-miterlimit="10" stroke-width="0.25"/>
    <path d="M119.73,164.61H107.24a2.31,2.31,0,0,1-2.32-2.31V149.81a2.32,2.32,0,0,1,2.32-2.32h12.49a2.31,2.31,0,0,1,2.31,2.32V162.3A2.3,2.3,0,0,1,119.73,164.61Zm-12.49-15.12a.32.32,0,0,0-.32.32V162.3a.31.31,0,0,0,.32.31h12.49a.31.31,0,0,0,.31-.31V149.81a.31.31,0,0,0-.31-.32Z" stroke="#fff" stroke-miterlimit="10" stroke-width="0.25"/>
    <path d="M100.48,164.61H88a2.31,2.31,0,0,1-2.32-2.31V149.81A2.32,2.32,0,0,1,88,147.49h12.49a2.32,2.32,0,0,1,2.32,2.32V162.3A2.31,2.31,0,0,1,100.48,164.61ZM88,149.49a.32.32,0,0,0-.32.32V162.3a.31.31,0,0,0,.32.31h12.49a.31.31,0,0,0,.32-.31V149.81a.32.32,0,0,0-.32-.32Z" stroke="#fff" stroke-miterlimit="10" stroke-width="0.25"/>
  </g>
  <path d="M117.88,153.67l.69,2-3.27.81-.55.16.33.4,2.16,2.57-1.66,1.25L113.8,158l-.33-.42-.31.42-1.75,2.81-1.73-1.18,2.18-2.59.33-.43-.52-.14-3.27-.83.59-2,3.18,1.28.5.19v-.55l-.24-3.37h2.11l-.24,3.37v.52l.43-.19Z"/>
  <path d="M137.13,150.67l.69,2-3.28.81-.54.16.33.4,2.16,2.57-1.66,1.25L133.05,155l-.33-.42-.31.42-1.75,2.81-1.73-1.18,2.18-2.59.33-.43-.52-.14-3.27-.83.59-2,3.18,1.28.49.19v-.55l-.23-3.37h2.11l-.24,3.37v.52l.43-.19Z"/>
  <path d="M98.63,153.67l.69,2-3.27.81-.55.16.34.4L98,159.61l-1.66,1.25L94.56,158l-.34-.42-.3.42-1.76,2.81-1.73-1.18,2.18-2.59.33-.43-.52-.14-3.27-.83.59-2L92.92,155l.5.19v-.55l-.24-3.37h2.11l-.24,3.37v.52l.43-.19Z"/>
  <path d="M180.76,69h-96a7.08,7.08,0,0,0-7.09,7.09v18.1H187.84V76.09A7.08,7.08,0,0,0,180.76,69Z" fill="#e17000"/>
  <path d="M140.5,81.67H125a1.5,1.5,0,0,0,0,3H140.5a1.5,1.5,0,0,0,0-3Z"/>
  <circle cx="118.94" cy="83.17" r="1.55"/>
  <g>
    <rect x="118.91" y="102.62" width="27.64" height="27.64" rx="3.8" ry="3.8"/>
    <g>
      <path d="M122,123.73V117.2h1.88c2.21,0,3.43,1.1,3.43,3.07a3.11,3.11,0,0,1-3.47,3.46Zm1.2-1h.69c1.31,0,2.17-.7,2.17-2.41a2,2,0,0,0-2.26-2.15h-.6Z" fill="#fff"/>
      <path d="M128.9,116.76a.64.64,0,1,1,0,1.28.59.59,0,0,1-.65-.63A.62.62,0,0,1,128.9,116.76Zm.57,7h-1.12v-4.9l1.12,0Z" fill="#fff"/>
      <path d="M132.2,122.77h1.17c1.06,0,1.51.42,1.51,1.22s-.78,1.69-2.57,1.69c-1.41,0-2.05-.5-2.05-1.26a1.14,1.14,0,0,1,.74-1.07v0a.73.73,0,0,1-.38-.66.77.77,0,0,1,.54-.73v0a1.39,1.39,0,0,1-.7-1.31c0-1.19.8-1.84,2-1.84a2.66,2.66,0,0,1,.75.1h1.6v.75h-.76v0a1.15,1.15,0,0,1,.39.92c0,1.09-.74,1.66-2.09,1.66a2.45,2.45,0,0,1-.62-.08.35.35,0,0,0-.21.3C131.57,122.65,131.74,122.77,132.2,122.77Zm.21,2.07c1.07,0,1.46-.27,1.46-.65s-.18-.45-.67-.46l-1.63,0a.57.57,0,0,0-.27.52C131.3,124.58,131.64,124.84,132.41,124.84Zm1-4.38a.83.83,0,0,0-.95-.91.89.89,0,0,0-1,1,.82.82,0,0,0,.94.91A.86.86,0,0,0,133.44,120.46Z" fill="#fff"/>
      <path d="M136.18,116.76a.64.64,0,1,1,0,1.28.6.6,0,0,1-.66-.63A.62.62,0,0,1,136.18,116.76Zm.57,7h-1.13v-4.9l1.13,0Z" fill="#f98a3c"/>
      <path d="M138.17,123.73V117.2H140c2.21,0,3.44,1.1,3.44,3.07,0,2.36-1.34,3.46-3.48,3.46Zm1.2-1h.68c1.32,0,2.17-.7,2.17-2.41a2,2,0,0,0-2.26-2.15h-.59Z" fill="#f98a3c"/>
    </g>
  </g>
  <path d="M180.76,281.57h-96a7.08,7.08,0,0,1-7.09-7.08V256.38H187.84v18.11A7.08,7.08,0,0,1,180.76,281.57Z" fill="#e17000"/>
  <path d="M178.39,69H87.07a9.45,9.45,0,0,0-9.45,9.45V272.12a9.45,9.45,0,0,0,9.45,9.45h91.32a9.45,9.45,0,0,0,9.45-9.45V78.45A9.45,9.45,0,0,0,178.39,69Zm6.45,203.12a6.45,6.45,0,0,1-6.45,6.45H87.07a6.45,6.45,0,0,1-6.45-6.45V78.45A6.45,6.45,0,0,1,87.07,72h91.32a6.45,6.45,0,0,1,6.45,6.45Z" fill="#fff"/>
  <path d="M178.39,66H87.07A12.46,12.46,0,0,0,74.62,78.45V272.12a12.46,12.46,0,0,0,12.45,12.45h91.32a12.46,12.46,0,0,0,12.45-12.45V78.45A12.46,12.46,0,0,0,178.39,66Zm9.45,206.12a9.45,9.45,0,0,1-9.45,9.45H87.07a9.45,9.45,0,0,1-9.45-9.45V78.45A9.45,9.45,0,0,1,87.07,69h91.32a9.45,9.45,0,0,1,9.45,9.45Z"/>
  <path d="M69.08,197.46A307,307,0,0,0,83,163.34c1.13-3.44,7.45-25.08-3.58-37-10.87-11.8-20.5-.88-20.5-.88l1.45,19.09" fill="#fed6c3"/>
  <g>
    <path d="M60.32,144.51c.08,2.86-.6,4.37-1.72,7" fill="#fed6c3"/>
    <path d="M80.48,125.28c-3.69-4-7.67-6.06-11.87-6-6.35.07-10.68,4.9-10.86,5.11l-.42.47,1.49,19.67c.07,2.45-.46,3.69-1.52,6.15l-.08.2a1.5,1.5,0,0,0,.79,2,1.5,1.5,0,0,0,2-.79l.08-.2c1.11-2.6,1.85-4.31,1.76-7.43,0,0,0,0,0,0v0L60.42,126c1.1-1,4.23-3.64,8.25-3.67,3.29,0,6.52,1.65,9.6,5,10.69,11.59,4,33.14,3.26,35.56A306.38,306.38,0,0,1,67.74,196.8a1.5,1.5,0,0,0,.68,2,1.55,1.55,0,0,0,.66.15,1.49,1.49,0,0,0,1.35-.83,309.53,309.53,0,0,0,13.95-34.32C85.23,161.22,92.33,138.14,80.48,125.28Z"/>
  </g>
  <g>
    <path d="M176.82,237.71a11.66,11.66,0,0,0,4.31,7.79,9.89,9.89,0,0,0,7.4,2.12l3.67-.46c5.73-.71,9.79-6.32,9.06-12.51a11.7,11.7,0,0,0-4.31-7.79,10,10,0,0,0-5.17-2.12l-4.16.51a11.82,11.82,0,0,1-1.57.1l-.81,0C179.85,226.36,176.11,231.76,176.82,237.71Z" fill="#fed6c3"/>
    <path d="M201.17,183.62a11.7,11.7,0,0,0-4.31-7.79,10.07,10.07,0,0,0-6.2-2.19,9.67,9.67,0,0,0-1.2.08l-6.74.84c-5.73.71-9.8,6.32-9.06,12.51a11.62,11.62,0,0,0,4.31,7.79,10,10,0,0,0,5.48,2.16,9.4,9.4,0,0,0,1.91,0l6.23-.78.51-.06C197.83,195.42,201.9,189.81,201.17,183.62Z" fill="#fed6c3"/>
    <path d="M201.24,209.15a11.63,11.63,0,0,0-4.3-7.79,10.11,10.11,0,0,0-5.3-2.14,9.22,9.22,0,0,0-2.1,0l-4.93.62a9.6,9.6,0,0,0-1,.17c-5.22,1.18-8.8,6.51-8.11,12.34a11.7,11.7,0,0,0,4.31,7.79,10.15,10.15,0,0,0,5.25,2.14,9.67,9.67,0,0,0,2.15,0l4.52-.57.41-.05C197.91,221,202,215.33,201.24,209.15Z" fill="#fed6c3"/>
    <path d="M204.24,234.3a14.66,14.66,0,0,0-5.44-9.8,14,14,0,0,0-1.9-1.24,14.35,14.35,0,0,0,7.32-14.47,14.67,14.67,0,0,0-5.43-9.79,13.36,13.36,0,0,0-2-1.27,14.37,14.37,0,0,0,7.32-14.46,14.73,14.73,0,0,0-5.44-9.8,12.91,12.91,0,0,0-9.62-2.73l-6.74.84c-7.36.92-12.6,8-11.67,15.84a14.66,14.66,0,0,0,5.44,9.8,13.6,13.6,0,0,0,2.71,1.66,14.47,14.47,0,0,0-6.27,13.84,14.7,14.7,0,0,0,5.44,9.8,13.23,13.23,0,0,0,2.41,1.5,14.45,14.45,0,0,0-6.57,14,14.69,14.69,0,0,0,5.44,9.8,13,13,0,0,0,8.05,2.83,13.94,13.94,0,0,0,1.57-.1l3.67-.46C199.93,249.22,205.17,242.12,204.24,234.3Zm-23.11,11.2a11.66,11.66,0,0,1-4.31-7.79c-.71-6,3-11.35,8.42-12.39l.81,0a11.82,11.82,0,0,0,1.57-.1l4.16-.51a10,10,0,0,1,5.17,2.12,11.7,11.7,0,0,1,4.31,7.79c.73,6.19-3.33,11.8-9.06,12.51l-3.67.46A9.89,9.89,0,0,1,181.13,245.5Zm-5.59-33.13c-.69-5.83,2.89-11.16,8.11-12.34a9.6,9.6,0,0,1,1-.17l4.93-.62a9.22,9.22,0,0,1,2.1,0,10.11,10.11,0,0,1,5.3,2.14,11.63,11.63,0,0,1,4.3,7.79c.74,6.18-3.33,11.8-9.06,12.51l-.41.05-4.52.57a9.67,9.67,0,0,1-2.15,0,10.15,10.15,0,0,1-5.25-2.14A11.7,11.7,0,0,1,175.54,212.37Zm-1.88-25.3c-.74-6.19,3.33-11.8,9.06-12.51l6.74-.84a9.67,9.67,0,0,1,1.2-.08,10.07,10.07,0,0,1,6.2,2.19,11.7,11.7,0,0,1,4.31,7.79c.73,6.19-3.34,11.8-9.07,12.52l-.51.06-6.23.78a9.4,9.4,0,0,1-1.91,0,10,10,0,0,1-5.48-2.16A11.62,11.62,0,0,1,173.66,187.07Z"/>
  </g>
  <g>
    <polygon points="163.38 92.1 168.44 92.1 176.89 74.1 171.82 74.1 163.38 92.1" fill="#fff" opacity="0.2"/>
    <polygon points="160 92.1 165.07 92.1 173.51 74.1 168.44 74.1 160 92.1" fill="#fff" opacity="0.2"/>
  </g>
  <g>
    <polygon points="91.93 276.4 97 276.4 105.44 258.4 100.38 258.4 91.93 276.4" fill="#fff" opacity="0.2"/>
    <polygon points="88.56 276.4 93.62 276.4 102.07 258.4 97 258.4 88.56 276.4" fill="#fff" opacity="0.2"/>
  </g>
  <g>
    <path d="M208.89,283.07c-5,0-8.82,1.67-11.14,4.67a14.61,14.61,0,0,0-26.4-4,14.6,14.6,0,0,0-25.51-4.37V248.7a14.61,14.61,0,0,0-29.22,0V324a1.5,1.5,0,0,0,1.5,1.5H222a1.5,1.5,0,0,0,1.5-1.5V297.68A14.62,14.62,0,0,0,208.89,283.07ZM220.5,322.5H119.62V248.7a11.61,11.61,0,0,1,23.22,0v39.57a1.5,1.5,0,0,0,3,0,11.61,11.61,0,0,1,23.22,0v3.36a1.5,1.5,0,0,0,3,0,11.61,11.61,0,1,1,23.22,0l0,3.33a1.51,1.51,0,0,0,1.47,1.49h0a1.5,1.5,0,0,0,1.5-1.42c.42-7.8,6.82-9,10.59-9a11.63,11.63,0,0,1,11.61,11.61Z"/>
    <path d="M208.89,286.07c-3.77,0-10.17,1.17-10.59,9a1.5,1.5,0,0,1-1.5,1.42h0A1.51,1.51,0,0,1,195.3,295l0-3.33a11.61,11.61,0,1,0-23.22,0,1.5,1.5,0,0,1-3,0v-3.36a11.61,11.61,0,0,0-23.22,0,1.5,1.5,0,0,1-3,0V248.7a11.61,11.61,0,0,0-23.22,0v76.8H220.5V297.68A11.63,11.63,0,0,0,208.89,286.07Z" fill="#fed6c3"/>
  </g>
</svg>
