<svg id="foreground" xmlns="http://www.w3.org/2000/svg" width="480" height="320" viewBox="0 0 480 320">
  <title>digid_instructie_qrscan_tablet</title>
  <g>
    <g>
      <rect x="206.62" y="41.98" width="188.82" height="231.31" fill="#fff"/>
      <path d="M207.41,43.44H394.5a.86.86,0,0,0,.85-.86V28.09a10.2,10.2,0,0,0-10.2-10.19H216.74a10.2,10.2,0,0,0-10.2,10.19V42.58A.86.86,0,0,0,207.41,43.44Z" fill="#e17000"/>
      <path d="M394.5,264.48H207.41a.85.85,0,0,0-.87.83v14.51a10.2,10.2,0,0,0,10.2,10.2H385.15a10.2,10.2,0,0,0,10.2-10.2h0V265.34a.84.84,0,0,0-.84-.86Z" fill="#e17000"/>
      <path d="M381.5,17.9a14,14,0,0,1,14,14.05v244.2a14,14,0,0,1-14,14H220.6a14,14,0,0,1-14.06-13.94V32a14,14,0,0,1,14-14h161m0-3.55H220.6A17.57,17.57,0,0,0,203,31.86V276.15a17.57,17.57,0,0,0,17.6,17.5H381.5A17.57,17.57,0,0,0,399,276.1V32A17.56,17.56,0,0,0,381.46,14.4Z"/>
      <path d="M381.5,21.44A10.48,10.48,0,0,1,391.91,32v244.2a10.46,10.46,0,0,1-10.45,10.45H220.6a10.45,10.45,0,0,1-10.45-10.45V32a10.47,10.47,0,0,1,10.43-10.51H381.5m0-3.54H220.6a14,14,0,0,0-14.06,13.94V276.15a14,14,0,0,0,14.05,14H381.5a14,14,0,0,0,14-14V32a14,14,0,0,0-14-14Z" fill="#fff"/>
      <g>
        <rect x="286.95" y="51.66" width="28.02" height="28.02" rx="3.85" ry="3.85"/>
        <g>
          <path d="M290.07,73.06V66.44H292c2.24,0,3.48,1.19,3.48,3.12a3.16,3.16,0,0,1-2.71,3.55,3.93,3.93,0,0,1-.84,0Zm1.18-1h.69c1.33,0,2.21-.72,2.21-2.45a2,2,0,0,0-1.88-2.19,1.86,1.86,0,0,0-.41,0h-.61Z" fill="#fff"/>
          <path d="M297.09,66a.65.65,0,0,1,0,1.3h0a.6.6,0,0,1-.67-.52.2.2,0,0,1,0-.11A.64.64,0,0,1,297,66Zm.57,7.09h-1.18v-5h1.18Z" fill="#fff"/>
          <path d="M300.43,72.11h1.18c1.08,0,1.53.43,1.53,1.19s-.78,1.72-2.6,1.72c-1.43,0-2.08-.51-2.08-1.29a1.17,1.17,0,0,1,.76-1.07h0a.72.72,0,0,1-.39-.66.79.79,0,0,1,.55-.75h0a1.39,1.39,0,0,1-.72-1.32,1.84,1.84,0,0,1,2.08-1.87,2.87,2.87,0,0,1,.77.11h1.62v.75h-.77a1.18,1.18,0,0,1,.39,1c0,1.1-.75,1.68-2.12,1.68a2.16,2.16,0,0,1-.62-.09.36.36,0,0,0-.21.31C299.76,72,300,72.11,300.43,72.11Zm.2,2.11c1.1,0,1.49-.27,1.49-.66s-.17-.46-.67-.48H299.8a.56.56,0,0,0-.28.52c0,.33.35.59,1.11.59Zm1.06-4.44a.85.85,0,0,0-.76-.94.74.74,0,0,0-.21,0,.88.88,0,0,0-1,1,.83.83,0,0,0,.74.92.74.74,0,0,0,.21,0,.89.89,0,0,0,1-.75,1.22,1.22,0,0,0,0-.27Z" fill="#fff"/>
          <path d="M304.49,66a.65.65,0,1,1,0,1.3h0a.58.58,0,0,1-.66-.51.49.49,0,0,1,0-.12.64.64,0,0,1,.59-.67Zm.57,7.09h-1.18v-5h1.18Z" fill="#f98a3c"/>
          <path d="M306.48,73.06V66.44h1.9c2.24,0,3.48,1.19,3.48,3.12a3.16,3.16,0,0,1-2.71,3.55,3.93,3.93,0,0,1-.84,0Zm1.18-1h.7c1.32,0,2.2-.72,2.2-2.45a2,2,0,0,0-1.88-2.19,1.86,1.86,0,0,0-.41,0h-.61Z" fill="#f98a3c"/>
        </g>
      </g>
    </g>
    <circle cx="301.02" cy="30.73" r="1.77"/>
  </g>
  <g>
    <path d="M126.5,324.5l14.23-18.22a21.74,21.74,0,0,1,9.8-7.06c23.24-8.52,50-32.2,50-60.1l-12.59,16.72H139.34c5.13-80.66-25.07-65.4-25.07-65.4h0a2.38,2.38,0,0,1-3.47-2.75c3.48-11.47,4.45-20.43,5.22-23.48L92.32,144.51c.08,2.86-.6,4.37-1.72,7-3.45,8.05-10.89,26.57-20.45,47.71-4.65,10.28,1,27.9,3.42,47.55a36.26,36.26,0,0,1-6.9,26.16L28.5,324.5" fill="#fed6c3"/>
    <path d="M187.16,254.34H140.93c2.09-35.4-2.36-57-13.22-64.14a14.68,14.68,0,0,0-14.12-1.1l-.09.05a.83.83,0,0,1-1-.06.86.86,0,0,1-.3-1,158,158,0,0,0,4.49-19.63c.3-1.73.53-3.09.74-3.91l.23-.91-27-22.45.1,3.33c.07,2.45-.46,3.69-1.52,6.16l-.08.2c-.89,2.09-2,4.87-3.45,8.22-3.94,9.48-9.9,23.8-17,39.46-3.53,7.82-1.53,19.25.79,32.48.9,5.11,1.83,10.4,2.51,15.87A34.6,34.6,0,0,1,65.46,272L27.29,323.61a1.5,1.5,0,0,0,.32,2.1,1.55,1.55,0,0,0,.89.29,1.51,1.51,0,0,0,1.21-.61l38.16-51.56a37.57,37.57,0,0,0,7.19-27.25c-.7-5.55-1.63-10.87-2.53-16-2.24-12.75-4.17-23.76-1-30.73,7.1-15.7,13.07-30.05,17-39.55,1.39-3.34,2.55-6.11,3.44-8.19l.08-.2a21.26,21.26,0,0,0,1.53-4.38l20.74,17.27c-.17.85-.36,1.93-.58,3.19a155.15,155.15,0,0,1-4.4,19.28,3.88,3.88,0,0,0,5.62,4.51,11.61,11.61,0,0,1,11.13,1c6.89,4.59,14.53,19.24,11.74,63l-.1,1.6h50.91L198.72,244c-2.83,24.45-26.42,45.67-48.71,53.83a23.28,23.28,0,0,0-10.46,7.54l-14.23,18.23a1.5,1.5,0,0,0,2.36,1.84l14.24-18.23a20.28,20.28,0,0,1,9.12-6.56c24.71-9.05,51-33.69,51-61.51v-4.49Z"/>
  </g>
  <g>
    <rect x="212.45" y="116.81" width="26.85" height="59.42" rx="13.42" ry="13.42" transform="translate(233.14 -122.61) rotate(58.58)" fill="#fed6c3"/>
    <path d="M252.5,130.25a14.94,14.94,0,0,0-20.51-5l-27.8,17a14.91,14.91,0,0,0,4.28,27.23,15.37,15.37,0,0,0,3.55.42,14.8,14.8,0,0,0,7.73-2.18l27.8-17A15,15,0,0,0,252.5,130.25Zm-6.52,18-27.79,17a11.93,11.93,0,0,1-12.44-20.35l27.8-17A11.92,11.92,0,0,1,246,148.21Z"/>
  </g>
  <rect x="103.65" y="153.25" width="87.54" height="104.3" fill="#fed6c3"/>
  <rect x="109.62" y="92.62" width="110.22" height="165.33" fill="#fff"/>
  <path d="M212.76,69h-96a7.08,7.08,0,0,0-7.09,7.09v18.1H219.84V76.09A7.08,7.08,0,0,0,212.76,69Z" fill="#e17000"/>
  <path d="M172.5,81.67H157a1.5,1.5,0,0,0,0,3H172.5a1.5,1.5,0,0,0,0-3Z"/>
  <circle cx="150.94" cy="83.17" r="1.55"/>
  <g>
    <rect x="150.91" y="102.62" width="27.64" height="27.64" rx="3.8" ry="3.8"/>
    <g>
      <path d="M154,123.73V117.2h1.88c2.21,0,3.43,1.1,3.43,3.07a3.11,3.11,0,0,1-3.47,3.46Zm1.2-1h.69c1.31,0,2.17-.7,2.17-2.41a2,2,0,0,0-2.26-2.15h-.6Z" fill="#fff"/>
      <path d="M160.9,116.76a.64.64,0,1,1,0,1.28.59.59,0,0,1-.65-.63A.62.62,0,0,1,160.9,116.76Zm.57,7h-1.12v-4.9l1.12,0Z" fill="#fff"/>
      <path d="M164.2,122.77h1.17c1.06,0,1.51.42,1.51,1.22s-.78,1.69-2.57,1.69c-1.41,0-2.05-.5-2.05-1.26a1.14,1.14,0,0,1,.74-1.07v0a.73.73,0,0,1-.38-.66.77.77,0,0,1,.54-.73v0a1.39,1.39,0,0,1-.7-1.31c0-1.19.8-1.84,2-1.84a2.61,2.61,0,0,1,.75.1h1.6v.75h-.76v0a1.15,1.15,0,0,1,.39.92c0,1.09-.74,1.66-2.09,1.66a2.45,2.45,0,0,1-.62-.08.35.35,0,0,0-.21.3C163.57,122.65,163.74,122.77,164.2,122.77Zm.21,2.07c1.07,0,1.46-.27,1.46-.65s-.18-.45-.67-.46l-1.63,0a.57.57,0,0,0-.27.52C163.3,124.58,163.64,124.84,164.41,124.84Zm1-4.38a.83.83,0,0,0-.95-.91.89.89,0,0,0-1,1,.82.82,0,0,0,.94.91A.86.86,0,0,0,165.44,120.46Z" fill="#fff"/>
      <path d="M168.18,116.76a.64.64,0,1,1,0,1.28.6.6,0,0,1-.66-.63A.62.62,0,0,1,168.18,116.76Zm.57,7h-1.13v-4.9l1.13,0Z" fill="#f98a3c"/>
      <path d="M170.17,123.73V117.2H172c2.21,0,3.44,1.1,3.44,3.07,0,2.36-1.34,3.46-3.48,3.46Zm1.2-1h.68c1.32,0,2.17-.7,2.17-2.41a2,2,0,0,0-2.26-2.15h-.59Z" fill="#f98a3c"/>
    </g>
  </g>
  <path d="M212.76,281.57h-96a7.08,7.08,0,0,1-7.09-7.08V256.38H219.84v18.11A7.08,7.08,0,0,1,212.76,281.57Z" fill="#e17000"/>
  <path d="M210.39,69H119.07a9.45,9.45,0,0,0-9.45,9.45V272.12a9.45,9.45,0,0,0,9.45,9.45h91.32a9.45,9.45,0,0,0,9.45-9.45V78.45A9.45,9.45,0,0,0,210.39,69Zm6.45,203.12a6.45,6.45,0,0,1-6.45,6.45H119.07a6.45,6.45,0,0,1-6.45-6.45V78.45A6.45,6.45,0,0,1,119.07,72h91.32a6.45,6.45,0,0,1,6.45,6.45Z" fill="#fff"/>
  <path d="M210.39,66H119.07a12.46,12.46,0,0,0-12.45,12.45V272.12a12.46,12.46,0,0,0,12.45,12.45h91.32a12.46,12.46,0,0,0,12.45-12.45V78.45A12.46,12.46,0,0,0,210.39,66Zm9.45,206.12a9.45,9.45,0,0,1-9.45,9.45H119.07a9.45,9.45,0,0,1-9.45-9.45V78.45A9.45,9.45,0,0,1,119.07,69h91.32a9.45,9.45,0,0,1,9.45,9.45Z"/>
  <path d="M101.08,197.46A307,307,0,0,0,115,163.34c1.13-3.44,7.45-25.08-3.58-37-10.87-11.8-20.5-.88-20.5-.88l1.45,19.09" fill="#fed6c3"/>
  <g>
    <path d="M92.32,144.51c.08,2.86-.6,4.37-1.72,7" fill="#fed6c3"/>
    <path d="M112.48,125.28c-3.69-4-7.67-6.06-11.87-6-6.35.07-10.68,4.9-10.86,5.11l-.42.47,1.49,19.67c.07,2.45-.46,3.69-1.52,6.15l-.08.2a1.5,1.5,0,0,0,.79,2,1.5,1.5,0,0,0,2-.79l.08-.2c1.11-2.6,1.85-4.31,1.76-7.43,0,0,0,0,0,0v0L92.42,126c1.1-1,4.23-3.64,8.25-3.67,3.29,0,6.52,1.65,9.6,5,10.69,11.59,4,33.14,3.26,35.56A306.38,306.38,0,0,1,99.74,196.8a1.5,1.5,0,0,0,.68,2,1.55,1.55,0,0,0,.66.15,1.49,1.49,0,0,0,1.35-.83,309.53,309.53,0,0,0,13.95-34.32C117.23,161.22,124.33,138.14,112.48,125.28Z"/>
  </g>
  <g>
    <path d="M208.82,237.71a11.66,11.66,0,0,0,4.31,7.79,9.89,9.89,0,0,0,7.4,2.12l3.67-.46c5.73-.71,9.79-6.32,9.06-12.51a11.7,11.7,0,0,0-4.31-7.79,10,10,0,0,0-5.17-2.12l-4.16.51a11.82,11.82,0,0,1-1.57.1l-.81,0C211.85,226.36,208.11,231.76,208.82,237.71Z" fill="#fed6c3"/>
    <path d="M233.17,183.62a11.7,11.7,0,0,0-4.31-7.79,10.07,10.07,0,0,0-6.2-2.19,9.67,9.67,0,0,0-1.2.08l-6.74.84c-5.73.71-9.8,6.32-9.06,12.51a11.62,11.62,0,0,0,4.31,7.79,10,10,0,0,0,5.48,2.16,9.4,9.4,0,0,0,1.91,0l6.23-.78.51-.06C229.83,195.42,233.9,189.81,233.17,183.62Z" fill="#fed6c3"/>
    <path d="M233.24,209.15a11.63,11.63,0,0,0-4.3-7.79,10.11,10.11,0,0,0-5.3-2.14,9.22,9.22,0,0,0-2.1,0l-4.93.62a9.6,9.6,0,0,0-1,.17c-5.22,1.18-8.8,6.51-8.11,12.34a11.7,11.7,0,0,0,4.31,7.79,10.15,10.15,0,0,0,5.25,2.14,9.67,9.67,0,0,0,2.15,0l4.52-.57.41-.05C229.91,221,234,215.33,233.24,209.15Z" fill="#fed6c3"/>
    <path d="M236.24,234.3a14.66,14.66,0,0,0-5.44-9.8,14,14,0,0,0-1.9-1.24,14.35,14.35,0,0,0,7.32-14.47,14.67,14.67,0,0,0-5.43-9.79,13.36,13.36,0,0,0-2-1.27,14.37,14.37,0,0,0,7.32-14.46,14.73,14.73,0,0,0-5.44-9.8,12.91,12.91,0,0,0-9.62-2.73l-6.74.84c-7.36.92-12.6,8-11.67,15.84a14.66,14.66,0,0,0,5.44,9.8,13.6,13.6,0,0,0,2.71,1.66,14.47,14.47,0,0,0-6.27,13.84,14.7,14.7,0,0,0,5.44,9.8,13.23,13.23,0,0,0,2.41,1.5,14.45,14.45,0,0,0-6.57,14,14.69,14.69,0,0,0,5.44,9.8,13,13,0,0,0,8.05,2.83,13.94,13.94,0,0,0,1.57-.1l3.67-.46C231.93,249.22,237.17,242.12,236.24,234.3Zm-23.11,11.2a11.66,11.66,0,0,1-4.31-7.79c-.71-6,3-11.35,8.42-12.39l.81,0a11.82,11.82,0,0,0,1.57-.1l4.16-.51a10,10,0,0,1,5.17,2.12,11.7,11.7,0,0,1,4.31,7.79c.73,6.19-3.33,11.8-9.06,12.51l-3.67.46A9.89,9.89,0,0,1,213.13,245.5Zm-5.59-33.13c-.69-5.83,2.89-11.16,8.11-12.34a9.6,9.6,0,0,1,1-.17l4.93-.62a9.22,9.22,0,0,1,2.1,0,10.11,10.11,0,0,1,5.3,2.14,11.63,11.63,0,0,1,4.3,7.79c.74,6.18-3.33,11.8-9.06,12.51l-.41.05-4.52.57a9.67,9.67,0,0,1-2.15,0,10.15,10.15,0,0,1-5.25-2.14A11.7,11.7,0,0,1,207.54,212.37Zm-1.88-25.3c-.74-6.19,3.33-11.8,9.06-12.51l6.74-.84a9.67,9.67,0,0,1,1.2-.08,10.07,10.07,0,0,1,6.2,2.19,11.7,11.7,0,0,1,4.31,7.79c.73,6.19-3.34,11.8-9.07,12.52l-.51.06-6.23.78a9.4,9.4,0,0,1-1.91,0,10,10,0,0,1-5.48-2.16A11.62,11.62,0,0,1,205.66,187.07Z"/>
  </g>
  <g>
    <polygon points="195.38 92.1 200.44 92.1 208.89 74.1 203.82 74.1 195.38 92.1" fill="#fff" opacity="0.2"/>
    <polygon points="192 92.1 197.07 92.1 205.51 74.1 200.44 74.1 192 92.1" fill="#fff" opacity="0.2"/>
  </g>
  <g>
    <polygon points="123.93 276.4 129 276.4 137.44 258.4 132.38 258.4 123.93 276.4" fill="#fff" opacity="0.2"/>
    <polygon points="120.56 276.4 125.62 276.4 134.07 258.4 129 258.4 120.56 276.4" fill="#fff" opacity="0.2"/>
  </g>
  <g>
    <g>
      <polyline points="144.83 151.5 129.5 151.5 129.5 166.83" fill="none" stroke="#e17000" stroke-miterlimit="10" stroke-width="3"/>
      <polyline points="183.17 151.5 198.5 151.5 198.5 166.83" fill="none" stroke="#e17000" stroke-miterlimit="10" stroke-width="3"/>
    </g>
    <g>
      <polyline points="183.17 220.5 198.5 220.5 198.5 205.17" fill="none" stroke="#e17000" stroke-miterlimit="10" stroke-width="3"/>
      <polyline points="144.83 220.5 129.5 220.5 129.5 205.17" fill="none" stroke="#e17000" stroke-miterlimit="10" stroke-width="3"/>
    </g>
  </g>
  <g>
    <polygon points="297.5 106 294 106 294 109.5 294 113 297.5 113 301 113 301 109.5 297.5 109.5 297.5 106"/>
    <polygon points="301 116.5 297.5 116.5 294 116.5 294 120 297.5 120 297.5 123.5 301 123.5 301 120 301 116.5"/>
    <rect x="301" y="123.5" width="3.5" height="3.5"/>
    <polygon points="301 134 301 137.5 304.5 137.5 304.5 141 308 141 308 134 304.5 134 301 134"/>
    <rect x="294" y="137.5" width="3.5" height="3.5"/>
    <polygon points="283.5 148 297.5 148 297.5 144.5 287 144.5 287 137.5 290.5 137.5 294 137.5 294 134 297.5 134 297.5 130.5 301 130.5 301 127 294 127 294 130.5 290.5 130.5 290.5 134 280 134 280 137.5 283.5 137.5 283.5 141 280 141 280 144.5 283.5 144.5 283.5 148"/>
    <rect x="297.5" y="148" width="3.5" height="3.5"/>
    <rect x="294" y="151.5" width="3.5" height="3.5"/>
    <rect x="301" y="165.5" width="3.5" height="3.5"/>
    <rect x="304.5" y="127" width="3.5" height="3.5"/>
    <rect x="308" y="141" width="3.5" height="3.5"/>
    <rect x="304.5" y="144.5" width="3.5" height="3.5"/>
    <polygon points="304.5 151.5 301 151.5 301 155 304.5 155 308 155 308 151.5 304.5 151.5"/>
    <polygon points="280 148 280 144.5 276.5 144.5 276.5 137.5 273 137.5 273 134 269.5 134 269.5 137.5 269.5 141 273 141 273 148 280 148"/>
    <rect x="325.5" y="134" width="3.5" height="3.5"/>
    <polygon points="329 137.5 329 141 329 144.5 329 148 332.5 148 332.5 144.5 336 144.5 336 141 336 137.5 336 134 332.5 134 332.5 137.5 329 137.5"/>
    <rect x="325.5" y="172.5" width="3.5" height="3.5"/>
    <rect x="332.5" y="172.5" width="3.5" height="3.5"/>
    <rect x="329" y="169" width="3.5" height="3.5"/>
    <polygon points="332.5 155 336 155 336 151.5 336 148 332.5 148 332.5 151.5 332.5 155"/>
    <rect x="273" y="113" width="10.5" height="10.5"/>
    <path d="M290.5,130.5V127H294v-3.5h-3.5V106H266v24.5h10.5V134H280v-3.5Zm-21-3.5V109.5H287V127Z"/>
    <path d="M301,106v3.5h3.5v14H308V113h3.5v17.5H308V134h7v14h7v3.5h-7V148h-3.5v7H308v3.5h3.5V162H308v-3.5h-7V162h3.5v3.5H308v7H297.5V176h14v-7H315v7h3.5v-3.5h7V169H329v-3.5h7v-7h-3.5V155H329v-7h-3.5v-7H322v3.5h-3.5v-7H322V134h-3.5v-3.5H329V134h3.5v-3.5H336V106Zm24.5,59.5H315V155h10.5Zm7-38.5H315V109.5h17.5Z"/>
    <rect x="318.5" y="113" width="10.5" height="10.5"/>
    <path d="M290.5,151.5h-7V148H280v3.5h-7V148h-3.5v3.5H266V176h28v-3.5h-3.5V169H294v-3.5h-3.5V162H294v3.5h3.5v-7H294V155h-3.5Zm-3.5,21H269.5V155H287Z"/>
    <rect x="273" y="158.5" width="10.5" height="10.5"/>
    <rect x="318.5" y="158.5" width="3.5" height="3.5"/>
  </g>
  <g>
    <polygon points="161.5 161 159 161 159 163.5 159 166 161.5 166 164 166 164 163.5 161.5 163.5 161.5 161"/>
    <polygon points="164 168.5 161.5 168.5 159 168.5 159 171 161.5 171 161.5 173.5 164 173.5 164 171 164 168.5"/>
    <rect x="164" y="173.5" width="2.5" height="2.5"/>
    <polygon points="164 181 164 183.5 166.5 183.5 166.5 186 169 186 169 181 166.5 181 164 181"/>
    <rect x="159" y="183.5" width="2.5" height="2.5"/>
    <polygon points="151.5 191 161.5 191 161.5 188.5 154 188.5 154 183.5 156.5 183.5 159 183.5 159 181 161.5 181 161.5 178.5 164 178.5 164 176 159 176 159 178.5 156.5 178.5 156.5 181 149 181 149 183.5 151.5 183.5 151.5 186 149 186 149 188.5 151.5 188.5 151.5 191"/>
    <rect x="161.5" y="191" width="2.5" height="2.5"/>
    <rect x="159" y="193.5" width="2.5" height="2.5"/>
    <rect x="164" y="203.5" width="2.5" height="2.5"/>
    <rect x="166.5" y="176" width="2.5" height="2.5"/>
    <rect x="169" y="186" width="2.5" height="2.5"/>
    <rect x="166.5" y="188.5" width="2.5" height="2.5"/>
    <polygon points="166.5 193.5 164 193.5 164 196 166.5 196 169 196 169 193.5 166.5 193.5"/>
    <polygon points="149 191 149 188.5 146.5 188.5 146.5 183.5 144 183.5 144 181 141.5 181 141.5 183.5 141.5 186 144 186 144 191 149 191"/>
    <rect x="181.5" y="181" width="2.5" height="2.5"/>
    <polygon points="184 183.5 184 186 184 188.5 184 191 186.5 191 186.5 188.5 189 188.5 189 186 189 183.5 189 181 186.5 181 186.5 183.5 184 183.5"/>
    <rect x="181.5" y="208.5" width="2.5" height="2.5"/>
    <rect x="186.5" y="208.5" width="2.5" height="2.5"/>
    <rect x="184" y="206" width="2.5" height="2.5"/>
    <polygon points="186.5 196 189 196 189 193.5 189 191 186.5 191 186.5 193.5 186.5 196"/>
    <rect x="144" y="166" width="7.5" height="7.5"/>
    <path d="M156.5,178.5V176H159v-2.5h-2.5V161H139v17.5h7.5V181H149v-2.5Zm-15-2.5V163.5H154V176Z"/>
    <path d="M164,161v2.5h2.5v10H169V166h2.5v12.5H169V181h5v10h5v2.5h-5V191h-2.5v5H169v2.5h2.5V201H169v-2.5h-5V201h2.5v2.5H169v5h-7.5V211h10v-5H174v5h2.5v-2.5h5V206H184v-2.5h5v-5h-2.5V196H184v-5h-2.5v-5H179v2.5h-2.5v-5H179V181h-2.5v-2.5H184V181h2.5v-2.5H189V161Zm17.5,42.5H174V196h7.5Zm5-27.5H174V163.5h12.5Z"/>
    <rect x="176.5" y="166" width="7.5" height="7.5"/>
    <path d="M156.5,193.5h-5V191H149v2.5h-5V191h-2.5v2.5H139V211h20v-2.5h-2.5V206H159v-2.5h-2.5V201H159v2.5h2.5v-5H159V196h-2.5Zm-2.5,15H141.5V196H154Z"/>
    <rect x="144" y="198.5" width="7.5" height="7.5"/>
    <rect x="176.5" y="198.5" width="2.5" height="2.5"/>
  </g>
</svg>
