<svg id="foreground" xmlns="http://www.w3.org/2000/svg" width="480" height="320" viewBox="0 0 480 320">
  <title>digid_instructie_qrscan_desktop</title>
  <g opacity="0.9">
    <path d="M463.13,218.87l-37.42-33.3-298.18.33-38,33.38a2.64,2.64,0,0,0-.88,2v6.38a4.94,4.94,0,0,0,4.72,5.12h0l365.87-.41c2.61,0,4.72-1.35,4.72-4.18v-7.33A2.67,2.67,0,0,0,463.13,218.87Z" fill="#999"/>
    <rect x="129.64" y="19.19" width="293.86" height="154.46" fill="#fff"/>
    <rect x="129.64" y="7.88" width="293.86" height="22.6" fill="#e17000"/>
    <rect x="129.64" y="157.58" width="293.86" height="22.6" fill="#e17000"/>
    <path d="M424.39,13.44A7.45,7.45,0,0,0,416.94,6h0l-281.39.31a7.45,7.45,0,0,0-7.44,7.45l.18,169.31,296.29-.33ZM131.28,180.06l-.18-166.3a4.45,4.45,0,0,1,4.44-4.45L416.93,9h0a4.46,4.46,0,0,1,4.45,4.44l.17,166.31Z" fill="#fff"/>
    <path d="M467,220.85a5.63,5.63,0,0,0-1.87-4.22L427.57,183.2l-.18-169.77A10.46,10.46,0,0,0,416.94,3h0l-281.39.31A10.46,10.46,0,0,0,125.1,13.76l.19,170.12L87.57,217a5.64,5.64,0,0,0-1.9,4.25v6.37a7.94,7.94,0,0,0,7.72,8.12l365.89-.41c4.54,0,7.71-3,7.71-7.19ZM135.54,6.31,416.93,6h0a7.45,7.45,0,0,1,7.45,7.44l.18,169.13-296.29.33L128.1,13.76A7.45,7.45,0,0,1,135.54,6.31ZM459.28,232.36l-365.87.41h0a4.94,4.94,0,0,1-4.72-5.12v-6.38a2.64,2.64,0,0,1,.88-2l37.78-33.21,298.58-.33,37.22,33.13a2.67,2.67,0,0,1,.86,2v7.33C464,231,461.89,232.36,459.28,232.36Z"/>
    <path d="M447.45,213.27,423,191.82l-293.36.33-24.42,21.5a4.3,4.3,0,0,0-1.17,4.79,4.17,4.17,0,0,0,3.9,2.74l336.8-.37a4.16,4.16,0,0,0,3.9-2.74A4.33,4.33,0,0,0,447.45,213.27ZM107.18,215.9l23.57-20.76,291.11-.32,23.61,20.71a1.3,1.3,0,0,1-.74,2.28l-336.8.37h0A1.31,1.31,0,0,1,107.18,215.9Z"/>
    <path d="M421.86,194.82l-291.11.32L107.18,215.9a1.31,1.31,0,0,0,.75,2.28h0l336.8-.37a1.3,1.3,0,0,0,.74-2.28Z" fill="#e6e6e6"/>
    <g>
      <g>
        <path d="M411.24,203.91a1.5,1.5,0,0,1,0-3h8a1.5,1.5,0,0,1,0,3Z"/>
        <path d="M153.65,204.2a1.5,1.5,0,0,1,0-3l16.35,0h0a1.5,1.5,0,0,1,0,3l-16.36,0Zm28.62,0a1.5,1.5,0,0,1-1.5-1.49,1.51,1.51,0,0,1,1.5-1.51h16.36a1.5,1.5,0,1,1,0,3Zm28.62,0a1.5,1.5,0,0,1,0-3l16.36,0h0a1.5,1.5,0,0,1,0,3l-16.36,0Zm28.62,0a1.5,1.5,0,0,1,0-3l16.36,0h0a1.5,1.5,0,0,1,0,3l-16.35,0Zm28.62,0a1.5,1.5,0,0,1,0-3l16.36,0h0a1.5,1.5,0,0,1,0,3l-16.35,0Zm28.63,0a1.5,1.5,0,0,1,0-3l16.36,0h0a1.5,1.5,0,0,1,0,3l-16.35,0Zm28.62,0a1.5,1.5,0,0,1,0-3l16.35,0h0a1.5,1.5,0,0,1,0,3l-16.35,0ZM354,204a1.5,1.5,0,0,1,0-3l16.35,0h0a1.5,1.5,0,0,1,0,3L354,204Zm28.62,0a1.5,1.5,0,1,1,0-3H399a1.5,1.5,0,1,1,0,3Z"/>
        <path d="M133.38,204.22a1.5,1.5,0,0,1,0-3h8a1.5,1.5,0,0,1,0,3Z"/>
      </g>
      <g>
        <path d="M422.84,211.75a1.5,1.5,0,1,1,0-3h8a1.5,1.5,0,0,1,0,3Z"/>
        <path d="M141.84,212.06a1.5,1.5,0,1,1,0-3H157.9a1.5,1.5,0,0,1,1.5,1.49,1.51,1.51,0,0,1-1.5,1.51H141.84Zm28.1,0a1.5,1.5,0,1,1,0-3L186,209h0a1.5,1.5,0,0,1,0,3L170,212Zm28.1,0a1.5,1.5,0,1,1,0-3l16.06,0h0a1.5,1.5,0,0,1,0,3l-16,0Zm28.1,0a1.5,1.5,0,0,1,0-3l16.06,0h0a1.5,1.5,0,0,1,0,3l-16.06,0Zm28.1,0a1.5,1.5,0,0,1,0-3l16.06,0h0a1.5,1.5,0,0,1,0,3l-16.06,0Zm28.1,0a1.5,1.5,0,0,1,0-3l16.06,0h0a1.5,1.5,0,0,1,0,3l-16.06,0Zm28.1,0a1.5,1.5,0,1,1,0-3l16.06,0h0a1.5,1.5,0,0,1,0,3l-16.06,0Zm28.1,0a1.5,1.5,0,0,1,0-3l16.06,0h0a1.5,1.5,0,0,1,0,3l-16.06,0Zm28.1,0a1.5,1.5,0,0,1,0-3l16.06,0h0a1.5,1.5,0,0,1,0,3l-16.06,0Zm28.1,0a1.5,1.5,0,0,1,0-3l16.05,0h0a1.5,1.5,0,0,1,0,3l-16.06,0Z"/>
        <path d="M121.8,212.09a1.5,1.5,0,1,1,0-3h8a1.5,1.5,0,1,1,0,3Z"/>
      </g>
    </g>
    <path d="M276.57,17.77A1.42,1.42,0,1,0,278,19.19,1.42,1.42,0,0,0,276.57,17.77Z"/>
    <g>
      <rect x="379.82" y="38.48" width="29.51" height="29.02" rx="4.03" ry="4.03" transform="translate(341.15 447.51) rotate(-89.94)"/>
      <g>
        <path d="M383.28,60.76v-7h2c2.32,0,3.61,1.19,3.6,3.29,0,2.52-1.4,3.69-3.65,3.68Zm1.25-1h.72c1.38,0,2.28-.75,2.29-2.57a2.12,2.12,0,0,0-2.37-2.3h-.63Z" fill="#fff"/>
        <path d="M390.55,53.33a.65.65,0,0,1,.7.69.66.66,0,0,1-.7.68.63.63,0,0,1-.69-.68A.66.66,0,0,1,390.55,53.33Zm.59,7.44H390V55.54l1.18,0Z" fill="#fff"/>
        <path d="M394,59.75h1.24c1.11,0,1.58.44,1.58,1.29,0,1-.82,1.81-2.7,1.81-1.48,0-2.16-.54-2.16-1.35a1.22,1.22,0,0,1,.79-1.14v0a.8.8,0,0,1-.41-.7.85.85,0,0,1,.58-.79v0a1.49,1.49,0,0,1-.74-1.4,1.89,1.89,0,0,1,2.15-2,2.62,2.62,0,0,1,.8.11h1.67v.8H396v0a1.29,1.29,0,0,1,.4,1c0,1.15-.77,1.76-2.2,1.76a2.2,2.2,0,0,1-.64-.09.39.39,0,0,0-.22.33C393.35,59.63,393.52,59.75,394,59.75Zm.22,2.22c1.13,0,1.54-.29,1.54-.7s-.19-.48-.7-.49l-1.71-.06a.62.62,0,0,0-.29.55C393.06,61.69,393.42,62,394.22,62Zm1.09-4.68a.88.88,0,0,0-1-1,.94.94,0,0,0-1,1,.87.87,0,0,0,1,1A.91.91,0,0,0,395.31,57.29Z" fill="#fff"/>
        <path d="M398.19,53.34a.65.65,0,0,1,.7.69.66.66,0,0,1-.7.68.63.63,0,0,1-.69-.68A.66.66,0,0,1,398.19,53.34Zm.59,7.44H397.6V55.55l1.18,0Z" fill="#f98a3c"/>
        <path d="M400.28,60.78v-7h2c2.32,0,3.61,1.18,3.6,3.29,0,2.52-1.4,3.69-3.65,3.68Zm1.25-1.05h.72c1.38,0,2.28-.75,2.29-2.57a2.12,2.12,0,0,0-2.38-2.3h-.62Z" fill="#f98a3c"/>
      </g>
    </g>
  </g>
  <g>
    <path d="M94.5,324.5l14.23-18.22a21.74,21.74,0,0,1,9.8-7.06c23.24-8.52,50-32.2,50-60.1l-12.59,16.72H107.34c5.13-80.66-25.07-65.4-25.07-65.4h0a2.38,2.38,0,0,1-3.47-2.75c3.48-11.47,4.45-20.43,5.22-23.48L60.32,144.51c.08,2.86-.6,4.37-1.72,7-3.45,8.05-10.89,26.57-20.45,47.71-4.65,10.28,1,27.9,3.42,47.55a36.26,36.26,0,0,1-6.9,26.16L-3.5,324.5" fill="#fed6c3"/>
    <path d="M155.16,254.34H108.93c2.09-35.4-2.36-57-13.22-64.14a14.68,14.68,0,0,0-14.12-1.1l-.09.05a.83.83,0,0,1-1-.06.86.86,0,0,1-.3-1,158,158,0,0,0,4.49-19.63c.3-1.73.53-3.09.74-3.91l.23-.91-27-22.45.1,3.33c.07,2.45-.46,3.69-1.52,6.16l-.08.2c-.89,2.09-2,4.87-3.45,8.22-3.94,9.48-9.9,23.8-17,39.46-3.53,7.82-1.53,19.25.79,32.48.9,5.11,1.83,10.4,2.51,15.87A34.6,34.6,0,0,1,33.46,272L-4.71,323.61a1.5,1.5,0,0,0,.32,2.1,1.55,1.55,0,0,0,.89.29,1.51,1.51,0,0,0,1.21-.61l38.16-51.56a37.57,37.57,0,0,0,7.19-27.25c-.7-5.55-1.63-10.87-2.53-16-2.24-12.75-4.17-23.76-1-30.73,7.1-15.7,13.07-30.05,17-39.55,1.39-3.34,2.55-6.11,3.44-8.19l.08-.2a21.26,21.26,0,0,0,1.53-4.38l20.74,17.27c-.17.85-.36,1.93-.58,3.19a155.15,155.15,0,0,1-4.4,19.28A3.88,3.88,0,0,0,83,191.77a11.61,11.61,0,0,1,11.13,1c6.89,4.59,14.53,19.24,11.74,63l-.1,1.6h50.91L166.72,244c-2.83,24.45-26.42,45.67-48.71,53.83a23.28,23.28,0,0,0-10.46,7.54L93.32,323.58a1.5,1.5,0,0,0,2.36,1.84l14.24-18.23a20.28,20.28,0,0,1,9.12-6.56c24.71-9.05,51-33.69,51-61.51v-4.49Z"/>
  </g>
  <g>
    <rect x="180.45" y="116.81" width="26.85" height="59.42" rx="13.42" ry="13.42" transform="translate(217.83 -95.3) rotate(58.58)" fill="#fed6c3"/>
    <path d="M220.5,130.25a14.94,14.94,0,0,0-20.51-5l-27.8,17a14.91,14.91,0,0,0,4.28,27.23,15.37,15.37,0,0,0,3.55.42,14.8,14.8,0,0,0,7.73-2.18l27.8-17A15,15,0,0,0,220.5,130.25Zm-6.52,18-27.79,17a11.93,11.93,0,0,1-12.44-20.35l27.8-17A11.92,11.92,0,0,1,214,148.21Z"/>
  </g>
  <rect x="71.65" y="153.25" width="87.54" height="104.3" fill="#fed6c3"/>
  <rect x="77.62" y="92.62" width="110.22" height="165.33" fill="#fff"/>
  <path d="M180.76,69h-96a7.08,7.08,0,0,0-7.09,7.09v18.1H187.84V76.09A7.08,7.08,0,0,0,180.76,69Z" fill="#e17000"/>
  <path d="M140.5,81.67H125a1.5,1.5,0,0,0,0,3H140.5a1.5,1.5,0,0,0,0-3Z"/>
  <circle cx="118.94" cy="83.17" r="1.55"/>
  <g>
    <rect x="118.91" y="102.62" width="27.64" height="27.64" rx="3.8" ry="3.8"/>
    <g>
      <path d="M122,123.73V117.2h1.88c2.21,0,3.43,1.1,3.43,3.07a3.11,3.11,0,0,1-3.47,3.46Zm1.2-1h.69c1.31,0,2.17-.7,2.17-2.41a2,2,0,0,0-2.26-2.15h-.6Z" fill="#fff"/>
      <path d="M128.9,116.76a.64.64,0,1,1,0,1.28.59.59,0,0,1-.65-.63A.62.62,0,0,1,128.9,116.76Zm.57,7h-1.12v-4.9l1.12,0Z" fill="#fff"/>
      <path d="M132.2,122.77h1.17c1.06,0,1.51.42,1.51,1.22s-.78,1.69-2.57,1.69c-1.41,0-2.05-.5-2.05-1.26a1.14,1.14,0,0,1,.74-1.07v0a.73.73,0,0,1-.38-.66.77.77,0,0,1,.54-.73v0a1.39,1.39,0,0,1-.7-1.31c0-1.19.8-1.84,2-1.84a2.66,2.66,0,0,1,.75.1h1.6v.75h-.76v0a1.15,1.15,0,0,1,.39.92c0,1.09-.74,1.66-2.09,1.66a2.45,2.45,0,0,1-.62-.08.35.35,0,0,0-.21.3C131.57,122.65,131.74,122.77,132.2,122.77Zm.21,2.07c1.07,0,1.46-.27,1.46-.65s-.18-.45-.67-.46l-1.63,0a.57.57,0,0,0-.27.52C131.3,124.58,131.64,124.84,132.41,124.84Zm1-4.38a.83.83,0,0,0-.95-.91.89.89,0,0,0-1,1,.82.82,0,0,0,.94.91A.86.86,0,0,0,133.44,120.46Z" fill="#fff"/>
      <path d="M136.18,116.76a.64.64,0,1,1,0,1.28.6.6,0,0,1-.66-.63A.62.62,0,0,1,136.18,116.76Zm.57,7h-1.13v-4.9l1.13,0Z" fill="#f98a3c"/>
      <path d="M138.17,123.73V117.2H140c2.21,0,3.44,1.1,3.44,3.07,0,2.36-1.34,3.46-3.48,3.46Zm1.2-1h.68c1.32,0,2.17-.7,2.17-2.41a2,2,0,0,0-2.26-2.15h-.59Z" fill="#f98a3c"/>
    </g>
  </g>
  <path d="M180.76,281.57h-96a7.08,7.08,0,0,1-7.09-7.08V256.38H187.84v18.11A7.08,7.08,0,0,1,180.76,281.57Z" fill="#e17000"/>
  <path d="M178.39,69H87.07a9.45,9.45,0,0,0-9.45,9.45V272.12a9.45,9.45,0,0,0,9.45,9.45h91.32a9.45,9.45,0,0,0,9.45-9.45V78.45A9.45,9.45,0,0,0,178.39,69Zm6.45,203.12a6.45,6.45,0,0,1-6.45,6.45H87.07a6.45,6.45,0,0,1-6.45-6.45V78.45A6.45,6.45,0,0,1,87.07,72h91.32a6.45,6.45,0,0,1,6.45,6.45Z" fill="#fff"/>
  <path d="M178.39,66H87.07A12.46,12.46,0,0,0,74.62,78.45V272.12a12.46,12.46,0,0,0,12.45,12.45h91.32a12.46,12.46,0,0,0,12.45-12.45V78.45A12.46,12.46,0,0,0,178.39,66Zm9.45,206.12a9.45,9.45,0,0,1-9.45,9.45H87.07a9.45,9.45,0,0,1-9.45-9.45V78.45A9.45,9.45,0,0,1,87.07,69h91.32a9.45,9.45,0,0,1,9.45,9.45Z"/>
  <path d="M69.08,197.46A307,307,0,0,0,83,163.34c1.13-3.44,7.45-25.08-3.58-37-10.87-11.8-20.5-.88-20.5-.88l1.45,19.09" fill="#fed6c3"/>
  <g>
    <path d="M60.32,144.51c.08,2.86-.6,4.37-1.72,7" fill="#fed6c3"/>
    <path d="M80.48,125.28c-3.69-4-7.67-6.06-11.87-6-6.35.07-10.68,4.9-10.86,5.11l-.42.47,1.49,19.67c.07,2.45-.46,3.69-1.52,6.15l-.08.2a1.5,1.5,0,0,0,.79,2,1.5,1.5,0,0,0,2-.79l.08-.2c1.11-2.6,1.85-4.31,1.76-7.43,0,0,0,0,0,0v0L60.42,126c1.1-1,4.23-3.64,8.25-3.67,3.29,0,6.52,1.65,9.6,5,10.69,11.59,4,33.14,3.26,35.56A306.38,306.38,0,0,1,67.74,196.8a1.5,1.5,0,0,0,.68,2,1.55,1.55,0,0,0,.66.15,1.49,1.49,0,0,0,1.35-.83,309.53,309.53,0,0,0,13.95-34.32C85.23,161.22,92.33,138.14,80.48,125.28Z"/>
  </g>
  <g>
    <path d="M176.82,237.71a11.66,11.66,0,0,0,4.31,7.79,9.89,9.89,0,0,0,7.4,2.12l3.67-.46c5.73-.71,9.79-6.32,9.06-12.51a11.7,11.7,0,0,0-4.31-7.79,10,10,0,0,0-5.17-2.12l-4.16.51a11.82,11.82,0,0,1-1.57.1l-.81,0C179.85,226.36,176.11,231.76,176.82,237.71Z" fill="#fed6c3"/>
    <path d="M201.17,183.62a11.7,11.7,0,0,0-4.31-7.79,10.07,10.07,0,0,0-6.2-2.19,9.67,9.67,0,0,0-1.2.08l-6.74.84c-5.73.71-9.8,6.32-9.06,12.51a11.62,11.62,0,0,0,4.31,7.79,10,10,0,0,0,5.48,2.16,9.4,9.4,0,0,0,1.91,0l6.23-.78.51-.06C197.83,195.42,201.9,189.81,201.17,183.62Z" fill="#fed6c3"/>
    <path d="M201.24,209.15a11.63,11.63,0,0,0-4.3-7.79,10.11,10.11,0,0,0-5.3-2.14,9.22,9.22,0,0,0-2.1,0l-4.93.62a9.6,9.6,0,0,0-1,.17c-5.22,1.18-8.8,6.51-8.11,12.34a11.7,11.7,0,0,0,4.31,7.79,10.15,10.15,0,0,0,5.25,2.14,9.67,9.67,0,0,0,2.15,0l4.52-.57.41-.05C197.91,221,202,215.33,201.24,209.15Z" fill="#fed6c3"/>
    <path d="M204.24,234.3a14.66,14.66,0,0,0-5.44-9.8,14,14,0,0,0-1.9-1.24,14.35,14.35,0,0,0,7.32-14.47,14.67,14.67,0,0,0-5.43-9.79,13.36,13.36,0,0,0-2-1.27,14.37,14.37,0,0,0,7.32-14.46,14.73,14.73,0,0,0-5.44-9.8,12.91,12.91,0,0,0-9.62-2.73l-6.74.84c-7.36.92-12.6,8-11.67,15.84a14.66,14.66,0,0,0,5.44,9.8,13.6,13.6,0,0,0,2.71,1.66,14.47,14.47,0,0,0-6.27,13.84,14.7,14.7,0,0,0,5.44,9.8,13.23,13.23,0,0,0,2.41,1.5,14.45,14.45,0,0,0-6.57,14,14.69,14.69,0,0,0,5.44,9.8,13,13,0,0,0,8.05,2.83,13.94,13.94,0,0,0,1.57-.1l3.67-.46C199.93,249.22,205.17,242.12,204.24,234.3Zm-23.11,11.2a11.66,11.66,0,0,1-4.31-7.79c-.71-6,3-11.35,8.42-12.39l.81,0a11.82,11.82,0,0,0,1.57-.1l4.16-.51a10,10,0,0,1,5.17,2.12,11.7,11.7,0,0,1,4.31,7.79c.73,6.19-3.33,11.8-9.06,12.51l-3.67.46A9.89,9.89,0,0,1,181.13,245.5Zm-5.59-33.13c-.69-5.83,2.89-11.16,8.11-12.34a9.6,9.6,0,0,1,1-.17l4.93-.62a9.22,9.22,0,0,1,2.1,0,10.11,10.11,0,0,1,5.3,2.14,11.63,11.63,0,0,1,4.3,7.79c.74,6.18-3.33,11.8-9.06,12.51l-.41.05-4.52.57a9.67,9.67,0,0,1-2.15,0,10.15,10.15,0,0,1-5.25-2.14A11.7,11.7,0,0,1,175.54,212.37Zm-1.88-25.3c-.74-6.19,3.33-11.8,9.06-12.51l6.74-.84a9.67,9.67,0,0,1,1.2-.08,10.07,10.07,0,0,1,6.2,2.19,11.7,11.7,0,0,1,4.31,7.79c.73,6.19-3.34,11.8-9.07,12.52l-.51.06-6.23.78a9.4,9.4,0,0,1-1.91,0,10,10,0,0,1-5.48-2.16A11.62,11.62,0,0,1,173.66,187.07Z"/>
  </g>
  <g>
    <polygon points="163.38 92.1 168.44 92.1 176.89 74.1 171.82 74.1 163.38 92.1" fill="#fff" opacity="0.2"/>
    <polygon points="160 92.1 165.07 92.1 173.51 74.1 168.44 74.1 160 92.1" fill="#fff" opacity="0.2"/>
  </g>
  <g>
    <polygon points="91.93 276.4 97 276.4 105.44 258.4 100.38 258.4 91.93 276.4" fill="#fff" opacity="0.2"/>
    <polygon points="88.56 276.4 93.62 276.4 102.07 258.4 97 258.4 88.56 276.4" fill="#fff" opacity="0.2"/>
  </g>
  <g>
    <g>
      <polyline points="112.83 151.5 97.5 151.5 97.5 166.83" fill="none" stroke="#e17000" stroke-miterlimit="10" stroke-width="3"/>
      <polyline points="151.17 151.5 166.5 151.5 166.5 166.83" fill="none" stroke="#e17000" stroke-miterlimit="10" stroke-width="3"/>
    </g>
    <g>
      <polyline points="151.17 220.5 166.5 220.5 166.5 205.17" fill="none" stroke="#e17000" stroke-miterlimit="10" stroke-width="3"/>
      <polyline points="112.83 220.5 97.5 220.5 97.5 205.17" fill="none" stroke="#e17000" stroke-miterlimit="10" stroke-width="3"/>
    </g>
  </g>
  <g>
    <polygon points="272.5 61 269 61 269 64.5 269 68 272.5 68 276 68 276 64.5 272.5 64.5 272.5 61"/>
    <polygon points="276 71.5 272.5 71.5 269 71.5 269 75 272.5 75 272.5 78.5 276 78.5 276 75 276 71.5"/>
    <rect x="276" y="78.5" width="3.5" height="3.5"/>
    <polygon points="276 89 276 92.5 279.5 92.5 279.5 96 283 96 283 89 279.5 89 276 89"/>
    <rect x="269" y="92.5" width="3.5" height="3.5"/>
    <polygon points="258.5 103 272.5 103 272.5 99.5 262 99.5 262 92.5 265.5 92.5 269 92.5 269 89 272.5 89 272.5 85.5 276 85.5 276 82 269 82 269 85.5 265.5 85.5 265.5 89 255 89 255 92.5 258.5 92.5 258.5 96 255 96 255 99.5 258.5 99.5 258.5 103"/>
    <rect x="272.5" y="103" width="3.5" height="3.5"/>
    <rect x="269" y="106.5" width="3.5" height="3.5"/>
    <rect x="276" y="120.5" width="3.5" height="3.5"/>
    <rect x="279.5" y="82" width="3.5" height="3.5"/>
    <rect x="283" y="96" width="3.5" height="3.5"/>
    <rect x="279.5" y="99.5" width="3.5" height="3.5"/>
    <polygon points="279.5 106.5 276 106.5 276 110 279.5 110 283 110 283 106.5 279.5 106.5"/>
    <polygon points="255 103 255 99.5 251.5 99.5 251.5 92.5 248 92.5 248 89 244.5 89 244.5 92.5 244.5 96 248 96 248 103 255 103"/>
    <rect x="300.5" y="89" width="3.5" height="3.5"/>
    <polygon points="304 92.5 304 96 304 99.5 304 103 307.5 103 307.5 99.5 311 99.5 311 96 311 92.5 311 89 307.5 89 307.5 92.5 304 92.5"/>
    <rect x="300.5" y="127.5" width="3.5" height="3.5"/>
    <rect x="307.5" y="127.5" width="3.5" height="3.5"/>
    <rect x="304" y="124" width="3.5" height="3.5"/>
    <polygon points="307.5 110 311 110 311 106.5 311 103 307.5 103 307.5 106.5 307.5 110"/>
    <rect x="248" y="68" width="10.5" height="10.5"/>
    <path d="M265.5,85.5V82H269V78.5h-3.5V61H241V85.5h10.5V89H255V85.5Zm-21-3.5V64.5H262V82Z"/>
    <path d="M276,61v3.5h3.5v14H283V68h3.5V85.5H283V89h7v14h7v3.5h-7V103h-3.5v7H283v3.5h3.5V117H283v-3.5h-7V117h3.5v3.5H283v7H272.5V131h14v-7H290v7h3.5v-3.5h7V124H304v-3.5h7v-7h-3.5V110H304v-7h-3.5V96H297v3.5h-3.5v-7H297V89h-3.5V85.5H304V89h3.5V85.5H311V61Zm24.5,59.5H290V110h10.5Zm7-38.5H290V64.5h17.5Z"/>
    <rect x="293.5" y="68" width="10.5" height="10.5"/>
    <path d="M265.5,106.5h-7V103H255v3.5h-7V103h-3.5v3.5H241V131h28v-3.5h-3.5V124H269v-3.5h-3.5V117H269v3.5h3.5v-7H269V110h-3.5Zm-3.5,21H244.5V110H262Z"/>
    <rect x="248" y="113.5" width="10.5" height="10.5"/>
    <rect x="293.5" y="113.5" width="3.5" height="3.5"/>
  </g>
  <g>
    <polygon points="129.5 161 127 161 127 163.5 127 166 129.5 166 132 166 132 163.5 129.5 163.5 129.5 161"/>
    <polygon points="132 168.5 129.5 168.5 127 168.5 127 171 129.5 171 129.5 173.5 132 173.5 132 171 132 168.5"/>
    <rect x="132" y="173.5" width="2.5" height="2.5"/>
    <polygon points="132 181 132 183.5 134.5 183.5 134.5 186 137 186 137 181 134.5 181 132 181"/>
    <rect x="127" y="183.5" width="2.5" height="2.5"/>
    <polygon points="119.5 191 129.5 191 129.5 188.5 122 188.5 122 183.5 124.5 183.5 127 183.5 127 181 129.5 181 129.5 178.5 132 178.5 132 176 127 176 127 178.5 124.5 178.5 124.5 181 117 181 117 183.5 119.5 183.5 119.5 186 117 186 117 188.5 119.5 188.5 119.5 191"/>
    <rect x="129.5" y="191" width="2.5" height="2.5"/>
    <rect x="127" y="193.5" width="2.5" height="2.5"/>
    <rect x="132" y="203.5" width="2.5" height="2.5"/>
    <rect x="134.5" y="176" width="2.5" height="2.5"/>
    <rect x="137" y="186" width="2.5" height="2.5"/>
    <rect x="134.5" y="188.5" width="2.5" height="2.5"/>
    <polygon points="134.5 193.5 132 193.5 132 196 134.5 196 137 196 137 193.5 134.5 193.5"/>
    <polygon points="117 191 117 188.5 114.5 188.5 114.5 183.5 112 183.5 112 181 109.5 181 109.5 183.5 109.5 186 112 186 112 191 117 191"/>
    <rect x="149.5" y="181" width="2.5" height="2.5"/>
    <polygon points="152 183.5 152 186 152 188.5 152 191 154.5 191 154.5 188.5 157 188.5 157 186 157 183.5 157 181 154.5 181 154.5 183.5 152 183.5"/>
    <rect x="149.5" y="208.5" width="2.5" height="2.5"/>
    <rect x="154.5" y="208.5" width="2.5" height="2.5"/>
    <rect x="152" y="206" width="2.5" height="2.5"/>
    <polygon points="154.5 196 157 196 157 193.5 157 191 154.5 191 154.5 193.5 154.5 196"/>
    <rect x="112" y="166" width="7.5" height="7.5"/>
    <path d="M124.5,178.5V176H127v-2.5h-2.5V161H107v17.5h7.5V181H117v-2.5Zm-15-2.5V163.5H122V176Z"/>
    <path d="M132,161v2.5h2.5v10H137V166h2.5v12.5H137V181h5v10h5v2.5h-5V191h-2.5v5H137v2.5h2.5V201H137v-2.5h-5V201h2.5v2.5H137v5h-7.5V211h10v-5H142v5h2.5v-2.5h5V206H152v-2.5h5v-5h-2.5V196H152v-5h-2.5v-5H147v2.5h-2.5v-5H147V181h-2.5v-2.5H152V181h2.5v-2.5H157V161Zm17.5,42.5H142V196h7.5Zm5-27.5H142V163.5h12.5Z"/>
    <rect x="144.5" y="166" width="7.5" height="7.5"/>
    <path d="M124.5,193.5h-5V191H117v2.5h-5V191h-2.5v2.5H107V211h20v-2.5h-2.5V206H127v-2.5h-2.5V201H127v2.5h2.5v-5H127V196h-2.5Zm-2.5,15H109.5V196H122Z"/>
    <rect x="112" y="198.5" width="7.5" height="7.5"/>
    <rect x="144.5" y="198.5" width="2.5" height="2.5"/>
  </g>
</svg>
